<?xml version="1.0" encoding="utf-8"?>
<!-- Generator: Adobe Illustrator 23.0.1, SVG Export Plug-In . SVG Version: 6.00 Build 0)  -->
<svg version="1.1" id="Warstwa_1" xmlns="http://www.w3.org/2000/svg" xmlns:xlink="http://www.w3.org/1999/xlink" x="0px" y="0px"
	 viewBox="0 0 1024 768" style="enable-background:new 0 0 1024 768;" xml:space="preserve">
<style type="text/css">
	.st0{fill:#4565AD;}
	.st1{fill-rule:evenodd;clip-rule:evenodd;fill:#FFD600;}
	.st2{fill-rule:evenodd;clip-rule:evenodd;fill:#3A3938;}
	.st3{fill:#2B2577;}
	.st4{fill:#009DB1;}
	.st5{fill:#E84424;}
	.st6{clip-path:url(#SVGID_2_);}
	.st7{fill:#DD0F19;}
</style>
<g>
	<path class="st0" d="M639.75-730.94l-5.5-15.82h-90.61v15.82H639.75L639.75-730.94z M650.25-700.74l-5.5-15.82H543.64v15.82H650.25
		L650.25-700.74z M717.66-519.53h79.1v-15.82h-79.1V-519.53L717.66-519.53z M717.66-549.73h79.1v-15.82h-79.1V-549.73L717.66-549.73
		z M717.66-579.93h47.46v-15.82h-47.46V-579.93L717.66-579.93z M765.12-625.96h-47.46v15.82h47.46V-625.96L765.12-625.96z
		 M717.66-640.34h47.46v-15.82h-90.47l-4.45,12.79l-4.45-12.79h-90.47v15.82h47.46v-14.54l5.1,14.54h84.71l5.1-14.54V-640.34
		L717.66-640.34z M765.12-686.36h-79.97l-5.5,15.82h85.47V-686.36L765.12-686.36z M575.28-610.13h47.46v-15.82h-47.46V-610.13
		L575.28-610.13z M575.28-579.93h47.46v-15.82h-47.46V-579.93L575.28-579.93z M543.64-549.73h79.1v-15.82h-79.1V-549.73
		L543.64-549.73z M543.64-519.53h79.1v-15.82h-79.1V-519.53L543.64-519.53z M706.16-746.76l-5.5,15.82h96.11v-15.82H706.16
		L706.16-746.76z M690.15-700.74h106.61v-15.82H695.66L690.15-700.74L690.15-700.74z M575.28-670.54h85.47l-5.5-15.82h-79.97
		V-670.54L575.28-670.54z M638.45-610.13h63.51l5.55-15.82H632.9L638.45-610.13L638.45-610.13z M649.05-579.93h42.3l5.55-15.82
		H643.5L649.05-579.93L649.05-579.93z M659.65-549.73h21.1l5.55-15.82h-32.2L659.65-549.73L659.65-549.73z M670.2-519.53l5.5-15.82
		h-11L670.2-519.53L670.2-519.53z M353.8-519.53h116.49c15.82,0,30.01-6,40.75-15.82H353.8V-519.53L353.8-519.53z M477.48-595.75
		v15.82h53.21c0-5.48-0.75-10.78-2.12-15.82H477.48L477.48-595.75z M385.44-579.93h47.46v-15.82h-47.46V-579.93L385.44-579.93z
		 M477.48-670.54h51.1c1.37-5.05,2.12-10.34,2.12-15.82h-53.21V-670.54L477.48-670.54z M385.44-670.54h47.46v-15.82h-47.46V-670.54
		L385.44-670.54z M470.29-746.76H353.8v15.82h157.24C500.3-740.77,486-746.76,470.29-746.76L470.29-746.76z M522.6-716.56H353.8
		v15.82h175.16C527.59-706.37,525.42-711.68,522.6-716.56L522.6-716.56z M385.44-656.16v15.82h123.94
		c5.25-4.47,9.72-9.82,13.2-15.82H385.44L385.44-656.16z M509.38-625.96H385.44v15.82h137.14
		C519.1-616.14,514.64-621.49,509.38-625.96L509.38-625.96z M353.8-549.73h168.8c2.83-4.88,4.99-10.2,6.37-15.82H353.8V-549.73
		L353.8-549.73z M227.24-730.94h110.74v-15.82H227.24V-730.94L227.24-730.94z M227.24-700.74h110.74v-15.82H227.24V-700.74
		L227.24-700.74z M306.34-686.36h-47.46v15.82h47.46V-686.36L306.34-686.36z M258.88-640.34h47.46v-15.82h-47.46V-640.34
		L258.88-640.34z M258.88-610.13h47.46v-15.82h-47.46V-610.13L258.88-610.13z M258.88-579.93h47.46v-15.82h-47.46V-579.93
		L258.88-579.93z M227.24-549.73h110.74v-15.82H227.24V-549.73L227.24-549.73z M227.24-535.35h110.74v15.82H227.24V-535.35
		L227.24-535.35z M826.38-531.57c0.97,0,1.51-0.42,1.51-1.33v-0.91c0-0.91-0.54-1.33-1.51-1.33h-2.3v3.56H826.38L826.38-531.57z
		 M824.08-524.92H821v-12.63h5.74c2.84,0,4.29,1.69,4.29,3.99c0,1.99-0.91,3.26-2.3,3.81l2.84,4.83h-3.38l-2.36-4.35h-1.75V-524.92
		L824.08-524.92z M835.14-530.54v-1.57c0-5.07-3.99-9.06-9.24-9.06c-5.26,0-9.24,3.99-9.24,9.06v1.57c0,5.07,3.99,9.06,9.24,9.06
		C831.15-521.48,835.14-525.47,835.14-530.54L835.14-530.54z M813.81-531.33c0-7.07,5.38-12.44,12.08-12.44
		c6.7,0,12.08,5.38,12.08,12.44c0,7.07-5.38,12.45-12.08,12.45C819.19-518.88,813.81-524.26,813.81-531.33L813.81-531.33z"/>
</g>
<g>
	<path class="st1" d="M1494.63,350.78c-2.08-5.05-7.05-8.6-12.84-8.6c-7.67,0-13.88,6.22-13.88,13.88c0,1.23,0.16,2.42,0.46,3.56
		h1.52c0.42,0,0.98-0.46,1.13-0.82l2.71-6.85c0.34-0.87,1.19-1.44,2.12-1.44c0.94,0,1.78,0.57,2.12,1.44l4.33,10.97
		c0.19,0.48,0.74,0.87,1.22,0.87h0.93c0.21,0,0.44,0.17,0.53,0.37l0.38,0.97c0.08,0.21-0.02,0.38-0.23,0.38h-2.91
		c-1.26,0-2.72-1.03-3.22-2.29l-3.08-7.81c-0.31-0.78-0.54-1.52-0.74-2.32c-0.2,0.8-0.43,1.54-0.74,2.32l-1.49,3.76
		c-0.47,1.2-1.86,2.18-3.06,2.18h-0.94c2.08,5.05,7.05,8.6,12.84,8.6c7.67,0,13.88-6.22,13.88-13.88c0-1.23-0.16-2.42-0.46-3.56
		h-1.52c-0.42,0-0.98,0.46-1.13,0.82l-2.71,6.85c-0.34,0.87-1.19,1.44-2.12,1.44c-0.94,0-1.78-0.57-2.12-1.44l-4.33-10.97
		c-0.19-0.48-0.74-0.87-1.22-0.87h-0.93c-0.21,0-0.44-0.17-0.53-0.37l-0.38-0.97c-0.08-0.21,0.02-0.38,0.23-0.38h2.91
		c1.26,0,2.72,1.03,3.22,2.29l3.08,7.81c0.31,0.78,0.54,1.52,0.74,2.32c0.2-0.8,0.43-1.54,0.74-2.32l1.49-3.76
		c0.47-1.2,1.86-2.18,3.06-2.18H1494.63z"/>
	<path class="st2" d="M1598.01,350.2l1.19,3c0.26,0.67,0.45,1.31,0.63,2c0.18-0.69,0.36-1.33,0.63-2l1.19-3
		c0.28-0.71,0.97-1.18,1.73-1.18c0.76,0,1.45,0.47,1.73,1.18l3.76,9.53c0.72,1.78-0.14,3.22-1.92,3.22c-1.42,0-1.51,0-2.93,0
		c-0.2,0-0.29-0.16-0.22-0.36l0.36-0.9c0.08-0.19,0.3-0.35,0.5-0.35c0.99,0,0.66,0,1.65,0l-2.93-7.42c-0.26-0.67-0.45-1.31-0.63-2
		c-0.18,0.69-0.36,1.33-0.63,2l-3.43,8.69c-0.08,0.19-0.3,0.35-0.49,0.35h-1.23c-0.2,0-0.29-0.16-0.22-0.36
		c0.49-1.25,0.99-2.5,1.48-3.75l-1.94-4.92c-0.26-0.67-0.45-1.31-0.63-2c-0.18,0.69-0.36,1.33-0.63,2l-2.76,6.99
		c-0.44,1.12-1.74,2.04-2.86,2.04h-1.45c-0.2,0-0.29-0.16-0.22-0.36l0.36-0.9c0.08-0.19,0.3-0.35,0.5-0.35h0.81
		c0.39,0,0.92-0.43,1.05-0.77l4.09-10.36c0.28-0.71,0.97-1.18,1.73-1.18C1597.04,349.02,1597.73,349.49,1598.01,350.2L1598.01,350.2
		z M1556.09,351.74l3.78,9.59h-7.17l1.35-3.43c0.08-0.2-0.02-0.36-0.22-0.36h-1.23c-0.19,0-0.41,0.15-0.49,0.35l-1.15,2.9
		c-0.47,1.2,0.09,2.14,1.28,2.14h8.26c1.78,0,2.64-1.44,1.92-3.22l-3.53-8.95h1.58c0.19,0,0.41-0.16,0.5-0.35l0.36-0.9
		c0.08-0.2-0.02-0.36-0.22-0.36h-3.49C1556.21,349.17,1555.52,350.32,1556.09,351.74L1556.09,351.74z M1508.78,350.2l4.07,10.32
		c0.18,0.45,0.7,0.82,1.15,0.82h0.26c0.19,0,0.41,0.16,0.5,0.35l0.36,0.9c0.08,0.2-0.02,0.36-0.22,0.36h-2.11
		c-1.18,0-2.55-0.96-3.01-2.15c-0.91-2.3-1.81-4.59-2.72-6.89c-0.26-0.67-0.45-1.31-0.63-2c-0.18,0.69-0.36,1.33-0.63,2
		c-0.98,2.48-1.96,4.95-2.93,7.42h2.74c0.19,0,0.41,0.16,0.5,0.35l0.36,0.9c0.08,0.2-0.02,0.36-0.22,0.36h-3.62
		c-1.31,0-1.93-1.04-1.41-2.36l4.1-10.39c0.28-0.71,0.97-1.18,1.73-1.18C1507.81,349.02,1508.5,349.49,1508.78,350.2L1508.78,350.2z
		 M1576.32,349.17c0.2,0,0.29,0.16,0.22,0.36l-0.36,0.9c-0.08,0.19-0.3,0.35-0.5,0.35h-3.64l-4.17,10.56h4.31
		c0.2,0,0.29,0.16,0.22,0.36l-0.36,0.9c-0.08,0.19-0.3,0.35-0.5,0.35h-4.31c-1.78,0-2.64-1.44-1.92-3.22l3.53-8.95h-4.45
		c-0.2,0-0.29-0.16-0.22-0.36l0.36-0.9c0.08-0.19,0.3-0.35,0.5-0.35H1576.32L1576.32,349.17z M1530.76,351.74l3.78,9.59h-7.17
		l1.35-3.43c0.08-0.2-0.02-0.36-0.22-0.36h-1.23c-0.19,0-0.41,0.15-0.49,0.35l-1.15,2.9c-0.47,1.2,0.09,2.14,1.28,2.14h8.26
		c1.78,0,2.64-1.44,1.92-3.22l-3.53-8.95h1.58c0.19,0,0.41-0.16,0.5-0.35l0.36-0.9c0.08-0.2-0.02-0.36-0.22-0.36h-3.49
		C1530.87,349.17,1530.18,350.32,1530.76,351.74L1530.76,351.74z M1543.65,362.55c-0.66-0.37-1.22-0.97-1.49-1.64l-3.7-9.38
		c-0.52-1.32,0.1-2.36,1.41-2.36h2.22c0.2,0,0.29,0.16,0.22,0.36l-0.36,0.9c-0.08,0.19-0.3,0.35-0.5,0.35h-1.34l3.77,9.54
		c0.08,0.19,0.23,0.4,0.43,0.57l3.78-9.57c0.47-1.18,1.83-2.15,3.01-2.15h2.11c0.2,0,0.29,0.16,0.22,0.36l-0.36,0.9
		c-0.08,0.19-0.3,0.35-0.5,0.35h-0.26c-0.45,0-0.97,0.36-1.15,0.82l-5.28,13.37c-0.47,1.18-1.84,2.15-3.01,2.15h-2.81
		c-0.2,0-0.29-0.16-0.22-0.36l0.36-0.9c0.08-0.19,0.3-0.35,0.5-0.35h0.96c0.45,0,0.97-0.36,1.15-0.82L1543.65,362.55L1543.65,362.55
		z M1518.28,361.91c0.28,0.71,0.97,1.18,1.73,1.18c0.76,0,1.45-0.47,1.73-1.18c1.37-3.48,2.72-6.89,4.09-10.36
		c0.13-0.34,0.66-0.77,1.05-0.77h0.81c0.19,0,0.41-0.16,0.5-0.35l0.36-0.9c0.08-0.2-0.02-0.36-0.22-0.36h-1.45
		c-1.13,0-2.42,0.92-2.86,2.04c-0.92,2.33-1.84,4.66-2.76,6.99c-0.26,0.67-0.45,1.31-0.63,2c-0.18-0.69-0.36-1.33-0.63-2
		c-0.91-2.3-1.81-4.59-2.72-6.89c-0.47-1.18-1.83-2.15-3.01-2.15h-2.11c-0.2,0-0.29,0.16-0.22,0.36l0.36,0.9
		c0.08,0.19,0.3,0.35,0.5,0.35h0.26c0.45,0,0.97,0.36,1.15,0.82C1515.57,355.06,1516.91,358.45,1518.28,361.91L1518.28,361.91z
		 M1581.15,358.36h4.27c1.18,0,2.55-0.96,3.01-2.15l1.51-3.82c0.72-1.78-0.14-3.22-1.92-3.22c-2.49,0-3.98,0-6.47,0
		c-1.18,0-2.55,0.96-3.01,2.15l-3.32,8.41c-0.72,1.78,0.14,3.22,1.92,3.22h6.32c0.19,0,0.41-0.16,0.5-0.35l0.36-0.9
		c0.08-0.2-0.02-0.36-0.22-0.36h-6.32l3.84-9.74c0.18-0.45,0.7-0.82,1.15-0.82c1.87,0,2.75,0,4.62,0l-2.03,5.16
		c-0.18,0.45-0.7,0.82-1.15,0.82h-2.42c-0.19,0-0.41,0.16-0.5,0.35l-0.36,0.9C1580.86,358.2,1580.95,358.36,1581.15,358.36z"/>
</g>
<g>
	<path class="st3" d="M-673.04-525.79l-0.51-0.24c-0.05-0.03-6.07-2.74-10.77,2.21l-0.6,0.63l9.63,4.72L-673.04-525.79
		L-673.04-525.79z M-628.94-472.89c0,0-4.2,7.52-6.08,10.29c-1.89,2.8-7.8,4.54-12.91,2.1c-2.34-1.11-24.19-13.86-32.56-13.13
		c-42.34,3.69-53.87-13.75-55.23-15.34c-1.37-1.59-3.91-0.85-2.09,2.27c9.29,15.93,36.77,23.31,36.77,23.31
		c7.19,17.32,8.05,29.45,8.05,29.45c-7.12-5.55-14.8-10.22-22.95-14.1c-21.79-14.62-55.9-32.73-102.85-44.08
		c2.7-37.25,21.49-91.08,109.37-78.35c0,0,17.63,2.89,29.39,11.02c0,0-2.82,2.96-6.54,6.67c-3.71,3.7,0.39,6.07,0.39,6.07
		l18.56,14.59c0.22,7.72,0.54,9.88,6.34,16.87c5.81,6.98,28.39,30.63,31.35,33.79C-626.51-477.79-628.94-472.89-628.94-472.89
		L-628.94-472.89z M-831.34-545.48c-4.65,19.15-4.29,36.02-1.91,50.2c-4.41-0.88-8.89-1.72-13.5-2.47
		c-96.18-15.65-125.19,31.75-113.96,70.19c-31.8,11.95-61.68,25.63-85.67,39.07c37.75-90.54,119.78-170.22,189.02-180.69
		C-834.75-572.18-828.39-557.51-831.34-545.48L-831.34-545.48z"/>
	<path class="st4" d="M-818.01-462.74c37.47-2.96,72.84,0.8,102.07,14.71c-21.79-14.62-55.9-32.73-102.85-44.08
		C-819.73-479.13-818.73-468.18-818.01-462.74L-818.01-462.74z M-823.42-462.27c-41.99,4.01-91.63,17.55-137.29,34.7
		c-11.23-38.44,17.78-85.84,113.96-70.19c4.62,0.75,9.09,1.59,13.5,2.47C-830.96-481.72-826.83-470.59-823.42-462.27L-823.42-462.27
		z"/>
	<path class="st3" d="M-260.97-476.59l13.02-31.79l13.03,31.79H-260.97L-260.97-476.59z M-257.62-534.28l-42,98.72h21.99l8.95-21.98
		h41.46l8.96,21.98h22.55l-42.01-98.72H-257.62L-257.62-534.28z M-212.99-522.63v-3.32h1.33l1.94,3.32h1.66l-2.25-3.72
		c0.51-0.2,0.9-0.5,1.18-0.9c0.28-0.4,0.42-0.87,0.42-1.4c0-0.87-0.26-1.52-0.76-1.95c-0.51-0.43-1.31-0.64-2.4-0.64h-2.57v8.62
		H-212.99L-212.99-522.63z M-205.33-526.88c0,3.53-2.86,6.39-6.38,6.39c-3.53,0-6.39-2.86-6.39-6.39c0-3.53,2.86-6.39,6.39-6.39
		C-208.19-533.26-205.33-530.4-205.33-526.88L-205.33-526.88z M-211.72-534.28c-4.09,0-7.4,3.32-7.4,7.4c0,4.09,3.32,7.4,7.4,7.4
		s7.4-3.31,7.4-7.4C-204.32-530.97-207.63-534.28-211.72-534.28L-211.72-534.28z M-212.99-530h1.05c0.61,0,1.06,0.11,1.34,0.32
		c0.29,0.21,0.43,0.57,0.43,1.06c0,0.42-0.16,0.77-0.48,1.04c-0.32,0.27-0.74,0.41-1.27,0.41h-1.07V-530L-212.99-530z
		 M-529.66-499.45c0,8.45-6.34,14.94-17.2,14.94h-17.2v-30.18h16.78c10.86,0,17.62,5.22,17.62,14.95V-499.45L-529.66-499.45z
		 M-545.45-534.28h-40.33v98.72h21.72v-29.62h16.49c22.14,0,39.92-11.85,39.92-34.7v-0.28
		C-507.65-520.32-521.89-534.28-545.45-534.28L-545.45-534.28z M-389.49-523.26c-10.35,10.11-15.6,22.91-15.6,38.05
		c0,15.15,5.15,27.86,15.32,37.78c10.15,9.92,22.92,14.94,37.95,14.94c17.8,0,31.7-5.39,41.37-16.01l0.5-0.56v-45.31h-42.93v18.34
		h22.39v18.51c-5.8,3.45-13.04,5.2-21.52,5.2c-8.8,0-16.38-3.02-22.56-8.97c-6.16-5.93-9.28-13.96-9.28-23.84
		c0-9.88,3.22-17.95,9.56-23.98c6.36-6.05,14.35-9.13,23.75-9.13c4.94,0,9.32,0.61,13.01,1.81c3.46,1.12,6.97,3.17,10.44,6.03
		l12.01-15.16c-6.34-5.58-17.74-12.93-36.73-12.93C-366.46-538.48-379.14-533.36-389.49-523.26L-389.49-523.26z M-470.19-475.04
		h42.52v-19.33h-42.52v-20.6h52.89v-19.31h-74.47v98.72h75.17v-19.32h-53.59V-475.04L-470.19-475.04z"/>
</g>
<g>
	<path id="Magnets" class="st5" d="M114.12,384c0,11.5-9.32,20.82-20.82,20.82S72.48,395.5,72.48,384s9.32-20.82,20.82-20.82
		S114.12,372.5,114.12,384z M930.7,363.18c-11.5,0-20.82,9.32-20.82,20.82s9.32,20.82,20.82,20.82c11.5,0,20.82-9.32,20.82-20.82
		S942.2,363.18,930.7,363.18z"/>
	<path id="Wordmark" d="M280.68,439.77h-28.9l-8.12-28.9h-37.49l-7.96,28.9h-28.28l33.43-111.54h43.89L280.68,439.77z
		 M212.41,388.06h24.84l-8.91-32.33h-6.87L212.41,388.06z M389.72,328.23c26.4,0,41.7,13.44,41.7,36.71
		c0,23.59-15.31,37.34-41.7,37.34h-24.37v37.49h-29.06V328.23H389.72z M385.97,377.44c11.4,0,15.78-4.06,15.78-12.03
		c0-7.97-4.37-11.87-15.78-11.87h-20.62v23.9H385.97z M581.08,353.85h-33.43v85.92h-29.06v-85.92h-33.27v-25.62h95.76V353.85z
		 M678,439.77h-29.06V328.23H678V439.77z M745.59,328.23H776l21.09,84.04h6.87l20.93-84.04h29.79l-31.09,111.54h-46.78
		L745.59,328.23z"/>
</g>
<g>
	<g>
		<defs>
			<rect id="SVGID_1_" x="1400.96" y="258.91" width="115.84" height="55.68"/>
		</defs>
		<clipPath id="SVGID_2_">
			<use xlink:href="#SVGID_1_"  style="overflow:visible;"/>
		</clipPath>
		<path class="st6" d="M1493.2,273.19c3.8,0,6.86,3.06,6.86,6.86c0,2.36-1.09,4.36-2.88,5.59c1.86,1.27,3.13,3.37,3.13,5.8
			c0,3.9-3.2,7.1-7.1,7.1c-3.9,0-7.1-3.2-7.1-7.1c0-2.43,1.23-4.57,3.09-5.84c-1.72-1.23-2.81-3.2-2.81-5.55
			C1486.38,276.25,1489.4,273.19,1493.2,273.19 M1493.2,296.23c2.64,0,4.72-2.27,4.72-4.83c0-2.56-2.08-4.83-4.72-4.83
			c-2.64,0-4.72,2.27-4.72,4.83C1488.48,293.97,1490.56,296.23,1493.2,296.23 M1493.2,275.41c-2.56,0-4.49,2.15-4.49,4.64
			c0,2.49,1.92,4.6,4.49,4.6c2.53,0,4.52-2.11,4.52-4.6C1497.72,277.56,1495.72,275.41,1493.2,275.41"/>
		<polygon class="st6" points="1477.18,281.57 1477.18,275.41 1472.99,275.41 1472.99,281.57 1468.19,281.57 1468.19,285.56 
			1483.45,285.56 1483.45,281.57 		"/>
		<path class="st6" d="M1477.18,294.08v-7.25h-4.19v7.87c0,1.86,1.51,3.37,3.37,3.37h7.09v-3.99H1477.18z"/>
		<path class="st6" d="M1460.9,278.61c0.29,0.28,0.62,0.5,1,0.67c0.38,0.17,0.79,0.25,1.23,0.25c0.45,0,0.9-0.1,1.31-0.29
			c0.35-0.16,0.66-0.37,0.92-0.62c0.29-0.28,0.52-0.61,0.68-1c0.17-0.39,0.25-0.81,0.25-1.25c0-0.44-0.08-0.86-0.25-1.25
			c-0.17-0.39-0.4-0.72-0.68-1c-0.27-0.26-0.58-0.47-0.94-0.63c-0.41-0.19-0.85-0.29-1.3-0.29c-0.44,0-0.86,0.08-1.23,0.25
			c-0.38,0.17-0.71,0.39-1,0.67c-0.29,0.28-0.52,0.61-0.68,1c-0.17,0.39-0.25,0.81-0.25,1.25c0,0.45,0.08,0.86,0.25,1.25
			C1460.38,278,1460.61,278.34,1460.9,278.61"/>
		<rect x="1455.48" y="294.08" class="st6" width="14.58" height="3.99"/>
		<polygon class="st6" points="1461.07,292.81 1465.27,292.81 1465.27,281.57 1455.97,281.57 1455.97,285.56 1461.07,285.56 		"/>
		<rect x="1437.17" y="281.57" class="st6" width="4.19" height="16.51"/>
		<path class="st6" d="M1452.1,284.7c-0.3-0.82-0.72-1.5-1.25-2.03c-0.53-0.53-1.15-0.93-1.85-1.18c-0.7-0.26-1.45-0.38-2.25-0.38
			c-1.13,0-2.12,0.26-2.96,0.77c-0.46,0.28-0.84,0.63-1.16,1.03v2.86c0.59-0.57,1.4-0.86,2.43-0.86c1.07,0,1.88,0.34,2.45,1.02
			c0.57,0.68,0.85,1.6,0.85,2.78v9.39h4.19v-10.45C1452.55,286.49,1452.4,285.52,1452.1,284.7"/>
		<path class="st6" d="M1422.83,293.25c-0.64-0.78-0.97-1.85-0.97-3.23v-14.61h-4.39v14.61c0,2.66,0.7,4.75,2.11,6.26
			c1.28,1.37,3.12,2.11,5.51,2.24v-4.16C1424.11,294.24,1423.35,293.87,1422.83,293.25"/>
		<path class="st6" d="M1429.85,275.41v14.61c0,1.38-0.32,2.45-0.97,3.23c-0.52,0.62-1.28,0.99-2.27,1.11v4.16
			c2.4-0.13,4.24-0.87,5.51-2.24c1.41-1.51,2.11-3.59,2.11-6.26v-14.61H1429.85z"/>
		<polygon class="st6" points="1502.33,297.79 1502.33,295.77 1501.6,295.77 1501.6,295.4 1503.47,295.4 1503.47,295.77 
			1502.75,295.77 1502.75,297.79 		"/>
		<polygon class="st6" points="1505.9,297.79 1505.9,295.94 1505.17,297.79 1504.99,297.79 1504.25,295.94 1504.25,297.79 
			1503.83,297.79 1503.83,295.4 1504.43,295.4 1505.08,297.04 1505.73,295.4 1506.32,295.4 1506.32,297.79 		"/>
	</g>
	<g>
		<g>
			<g>
				<g>
					<path class="st7" d="M1671.83,293.32c-1.23,3.5-4.62,5.8-10.18,5.8c-4.63,0-9.09-2.69-7.99-8.86
						c0.92-5.19,5.69-8.65,11.14-8.65c6.11,0,8.77,4.19,7.78,9.08l-0.24,1.12h-11.47c-0.04,0.13-0.18,0.66-0.18,1.25
						c0,1.47,0.78,1.98,1.77,1.98c1.02,0,1.9-0.57,2.39-1.72H1671.83z M1665.92,288.32l0.08-0.38c0.24-1.28-0.37-2.24-1.71-2.24
						c-1.23,0-2.29,0.89-2.66,2.63H1665.92"/>
					<path class="st7" d="M1652.6,281.9c-1.76,0-3.17,1.01-4.12,2.32h-0.14l0.25-2.12h-7.38l-0.45,2.15l4.08-0.43l-0.09,0.41
						l-4.14,0.67l-2.91,13.72h7.96c0,0,0.82-3.94,1.32-6.25c0.8-3.68,2.82-4.52,4.17-4.52c1.14,0,1.85,0.51,2.02,0.66l1.3-6.14
						C1654.34,282.3,1653.66,281.9,1652.6,281.9"/>
					<path class="st7" d="M1580.16,288.96c-3.2-1.01-5.62-2.9-5.62-6.48c0-5.23,5.22-8.23,12.21-8.24c5.92-0.02,9.84,2.45,9.15,7.37
						l-8.42,0c0.3-1.34-0.48-2.11-1.92-2.11c-1.12,0-1.99,0.58-2.13,1.26c-0.2,0.97,0.43,1.59,1.94,2c1.27,0.35,2.14,0.58,3.39,0.94
						c3.56,1.02,5.27,3.15,5.71,5.37l-10.59,1.09L1580.16,288.96z M1580.46,294.64l0.7-3.36h-9.04c-0.63,5.69,3.84,7.96,9.56,7.96
						c5.5,0,11.31-1.83,12.6-6.85L1580.46,294.64"/>
					<path class="st7" d="M1627.37,283.31c0.63-0.51,2.18-1.7,4.55-1.7c2.41,0,4.25,1.05,5.18,3.02l-18.49,1.93l2.48-11.69h7.96
						l-1.79,8.44H1627.37z M1626.94,287.11c-0.52,0.69-0.94,1.7-1.27,3.21c-0.71,3.27,0.06,4.12,1.03,4.12
						c1.29,0,2.38-1.23,2.92-4.08c0.34-1.82,0.29-3.12-0.2-3.66l7.98-1.29c0.39,1.27,0.46,2.89,0.08,4.75
						c-1.17,5.87-4.76,8.95-8.77,8.95c-1.82,0-3.8-0.47-4.62-2.41h-0.17l-0.65,1.91h-7.22l2.14-10.09L1626.94,287.11"/>
					<path class="st7" d="M1607,292.8c-0.24,1.25-1.09,2.24-2.29,2.24c-1.13,0-1.64-0.92-1.42-1.93c0.18-0.85,1.07-1.7,2.71-1.7h1.3
						L1607,292.8z M1604.98,287.13c0.22-1.02,1-1.84,1.99-1.84c1.01,0,1.42,0.86,1.24,1.73l-0.13,0.63l7.46-0.78
						c-0.56-3.81-4.13-5.46-8.26-5.46c-6.16,0-9.11,3.06-9.69,5.77l-0.08,0.38h7.38L1604.98,287.13z M1595.8,292.15
						c-0.22,0.64-0.33,1.35-0.33,2.12c0,2.6,1.95,4.84,5.2,4.84c2.98,0,4.68-1.25,5.46-2.08h0.1l-0.15,1.58h7.48l1.84-8.6
						c0.08-0.37,0.14-0.73,0.17-1.07L1595.8,292.15"/>
				</g>
			</g>
		</g>
		<g>
			<path class="st7" d="M1673.45,295.61c0.9,0,1.62,0.73,1.62,1.65c0,0.93-0.72,1.66-1.63,1.66c-0.9,0-1.64-0.73-1.64-1.66
				C1671.8,296.34,1672.54,295.61,1673.45,295.61L1673.45,295.61z M1673.44,295.87c-0.73,0-1.32,0.62-1.32,1.39
				c0,0.79,0.59,1.4,1.33,1.4c0.73,0.01,1.32-0.62,1.32-1.4C1674.77,296.49,1674.18,295.87,1673.44,295.87L1673.44,295.87z
				 M1673.13,298.22h-0.29v-1.84c0.15-0.02,0.3-0.04,0.52-0.04c0.28,0,0.46,0.06,0.57,0.14c0.11,0.08,0.17,0.21,0.17,0.38
				c0,0.24-0.16,0.39-0.36,0.45v0.01c0.16,0.03,0.27,0.18,0.31,0.45c0.04,0.29,0.09,0.4,0.12,0.46h-0.31
				c-0.05-0.06-0.09-0.23-0.12-0.47c-0.05-0.24-0.16-0.32-0.4-0.32h-0.21V298.22z M1673.13,297.2h0.21c0.24,0,0.45-0.09,0.45-0.32
				c0-0.16-0.12-0.32-0.45-0.32c-0.1,0-0.16,0.01-0.21,0.02V297.2z"/>
		</g>
	</g>
</g>
</svg>
