<?xml version="1.0" encoding="utf-8"?>
<!-- Generator: Adobe Illustrator 23.0.1, SVG Export Plug-In . SVG Version: 6.00 Build 0)  -->
<svg version="1.1" id="Warstwa_1" xmlns="http://www.w3.org/2000/svg" xmlns:xlink="http://www.w3.org/1999/xlink" x="0px" y="0px"
	 viewBox="0 0 1024 768" style="enable-background:new 0 0 1024 768;" xml:space="preserve">
<style type="text/css">
	.st0{fill:#4565AD;}
	.st1{fill-rule:evenodd;clip-rule:evenodd;fill:#FFD600;}
	.st2{fill-rule:evenodd;clip-rule:evenodd;fill:#3A3938;}
	.st3{fill:#2B2577;}
	.st4{fill:#009DB1;}
	.st5{fill:#E84424;}
	.st6{clip-path:url(#SVGID_2_);}
	.st7{fill:#DD0F19;}
</style>
<g>
	<path class="st3" d="M447.96,343.21l-0.51-0.24c-0.05-0.03-6.07-2.74-10.77,2.21l-0.6,0.63l9.63,4.72L447.96,343.21L447.96,343.21z
		 M492.06,396.11c0,0-4.2,7.52-6.08,10.29c-1.89,2.8-7.8,4.54-12.91,2.1c-2.34-1.11-24.19-13.86-32.56-13.13
		c-42.34,3.69-53.87-13.75-55.23-15.34c-1.37-1.59-3.91-0.85-2.09,2.27c9.29,15.93,36.77,23.31,36.77,23.31
		c7.19,17.32,8.05,29.45,8.05,29.45c-7.12-5.55-14.8-10.22-22.95-14.1c-21.79-14.62-55.9-32.73-102.85-44.08
		c2.7-37.25,21.49-91.08,109.37-78.35c0,0,17.63,2.89,29.39,11.02c0,0-2.82,2.96-6.54,6.67c-3.71,3.7,0.39,6.07,0.39,6.07
		l18.56,14.59c0.22,7.72,0.54,9.88,6.34,16.87c5.81,6.98,28.39,30.63,31.35,33.79C494.49,391.21,492.06,396.11,492.06,396.11
		L492.06,396.11z M289.66,323.52c-4.65,19.15-4.29,36.02-1.91,50.2c-4.41-0.88-8.89-1.72-13.5-2.47
		c-96.18-15.65-125.19,31.75-113.96,70.19c-31.8,11.95-61.68,25.63-85.67,39.07c37.75-90.54,119.78-170.22,189.02-180.69
		C286.25,296.82,292.61,311.49,289.66,323.52L289.66,323.52z"/>
	<path class="st4" d="M302.99,406.26c37.47-2.96,72.84,0.8,102.07,14.71c-21.79-14.62-55.9-32.73-102.85-44.08
		C301.27,389.87,302.27,400.82,302.99,406.26L302.99,406.26z M297.58,406.73c-41.99,4.01-91.63,17.55-137.29,34.7
		c-11.23-38.44,17.78-85.84,113.96-70.19c4.62,0.75,9.09,1.59,13.5,2.47C290.04,387.28,294.17,398.41,297.58,406.73L297.58,406.73z"
		/>
	<path class="st3" d="M860.03,392.41l13.02-31.79l13.03,31.79H860.03L860.03,392.41z M863.38,334.72l-42,98.72h21.99l8.95-21.98
		h41.46l8.96,21.98h22.55l-42.01-98.72H863.38L863.38,334.72z M908.01,346.37v-3.32h1.33l1.94,3.32h1.66l-2.25-3.72
		c0.51-0.2,0.9-0.5,1.18-0.9c0.28-0.4,0.42-0.87,0.42-1.4c0-0.87-0.26-1.52-0.76-1.95c-0.51-0.43-1.31-0.64-2.4-0.64h-2.57v8.62
		H908.01L908.01,346.37z M915.67,342.12c0,3.53-2.86,6.39-6.38,6.39s-6.39-2.86-6.39-6.39c0-3.53,2.86-6.39,6.39-6.39
		S915.67,338.6,915.67,342.12L915.67,342.12z M909.28,334.72c-4.09,0-7.4,3.32-7.4,7.4c0,4.09,3.32,7.4,7.4,7.4s7.4-3.31,7.4-7.4
		C916.68,338.03,913.37,334.72,909.28,334.72L909.28,334.72z M908.01,339h1.05c0.61,0,1.06,0.11,1.34,0.32
		c0.29,0.21,0.43,0.57,0.43,1.06c0,0.42-0.16,0.77-0.48,1.04c-0.32,0.27-0.74,0.41-1.27,0.41h-1.07V339L908.01,339z M591.34,369.55
		c0,8.45-6.34,14.94-17.2,14.94h-17.2v-30.18h16.78c10.86,0,17.62,5.22,17.62,14.95V369.55L591.34,369.55z M575.55,334.72h-40.33
		v98.72h21.72v-29.62h16.49c22.14,0,39.92-11.85,39.92-34.7v-0.28C613.35,348.68,599.11,334.72,575.55,334.72L575.55,334.72z
		 M731.51,345.74c-10.35,10.11-15.6,22.91-15.6,38.05c0,15.15,5.15,27.86,15.32,37.78c10.15,9.92,22.92,14.94,37.95,14.94
		c17.8,0,31.7-5.39,41.37-16.01l0.5-0.56v-45.31h-42.93v18.34h22.39v18.51c-5.8,3.45-13.04,5.2-21.52,5.2
		c-8.8,0-16.38-3.02-22.56-8.97c-6.16-5.93-9.28-13.96-9.28-23.84c0-9.88,3.22-17.95,9.56-23.98c6.36-6.05,14.35-9.13,23.75-9.13
		c4.94,0,9.32,0.61,13.01,1.81c3.46,1.12,6.97,3.17,10.44,6.03l12.01-15.16c-6.34-5.58-17.74-12.93-36.73-12.93
		C754.54,330.52,741.86,335.64,731.51,345.74L731.51,345.74z M650.81,393.96h42.52v-19.33h-42.52v-20.6h52.89v-19.31h-74.47v98.72
		h75.17v-19.32h-53.59V393.96L650.81,393.96z"/>
</g>
</svg>
