<?xml version="1.0" encoding="utf-8"?>
<!-- Generator: Adobe Illustrator 23.0.1, SVG Export Plug-In . SVG Version: 6.00 Build 0)  -->
<svg version="1.1" id="Warstwa_1" xmlns="http://www.w3.org/2000/svg" xmlns:xlink="http://www.w3.org/1999/xlink" x="0px" y="0px"
	 viewBox="0 0 1024 768" style="enable-background:new 0 0 1024 768;" xml:space="preserve">
<style type="text/css">
	.st0{fill:#4565AD;}
	.st1{fill-rule:evenodd;clip-rule:evenodd;fill:#FFD600;}
	.st2{fill-rule:evenodd;clip-rule:evenodd;fill:#3A3938;}
	.st3{fill:#2B2577;}
	.st4{fill:#009DB1;}
	.st5{fill:#E84424;}
	.st6{clip-path:url(#SVGID_2_);}
	.st7{fill:#DD0F19;}
</style>
<g>
	<path class="st0" d="M-600.25-1015.94l-5.5-15.82h-90.61v15.82H-600.25L-600.25-1015.94z M-589.75-985.74l-5.5-15.82h-101.11v15.82
		H-589.75L-589.75-985.74z M-522.34-804.53h79.1v-15.82h-79.1V-804.53L-522.34-804.53z M-522.34-834.73h79.1v-15.82h-79.1V-834.73
		L-522.34-834.73z M-522.34-864.93h47.46v-15.82h-47.46V-864.93L-522.34-864.93z M-474.88-910.96h-47.46v15.82h47.46V-910.96
		L-474.88-910.96z M-522.34-925.34h47.46v-15.82h-90.47l-4.45,12.79l-4.45-12.79h-90.47v15.82h47.46v-14.54l5.1,14.54h84.71
		l5.1-14.54V-925.34L-522.34-925.34z M-474.88-971.36h-79.97l-5.5,15.82h85.47V-971.36L-474.88-971.36z M-664.72-895.13h47.46
		v-15.82h-47.46V-895.13L-664.72-895.13z M-664.72-864.93h47.46v-15.82h-47.46V-864.93L-664.72-864.93z M-696.36-834.73h79.1v-15.82
		h-79.1V-834.73L-696.36-834.73z M-696.36-804.53h79.1v-15.82h-79.1V-804.53L-696.36-804.53z M-533.84-1031.76l-5.5,15.82h96.11
		v-15.82H-533.84L-533.84-1031.76z M-549.85-985.74h106.61v-15.82h-101.11L-549.85-985.74L-549.85-985.74z M-664.72-955.54h85.47
		l-5.5-15.82h-79.97V-955.54L-664.72-955.54z M-601.55-895.13h63.51l5.55-15.82h-74.61L-601.55-895.13L-601.55-895.13z
		 M-590.95-864.93h42.3l5.55-15.82h-53.41L-590.95-864.93L-590.95-864.93z M-580.35-834.73h21.1l5.55-15.82h-32.2L-580.35-834.73
		L-580.35-834.73z M-569.8-804.53l5.5-15.82h-11L-569.8-804.53L-569.8-804.53z M-886.2-804.53h116.49c15.82,0,30.01-6,40.75-15.82
		H-886.2V-804.53L-886.2-804.53z M-762.52-880.75v15.82h53.21c0-5.48-0.75-10.78-2.12-15.82H-762.52L-762.52-880.75z
		 M-854.56-864.93h47.46v-15.82h-47.46V-864.93L-854.56-864.93z M-762.52-955.54h51.1c1.37-5.05,2.12-10.34,2.12-15.82h-53.21
		V-955.54L-762.52-955.54z M-854.56-955.54h47.46v-15.82h-47.46V-955.54L-854.56-955.54z M-769.71-1031.76H-886.2v15.82h157.24
		C-739.7-1025.77-754-1031.76-769.71-1031.76L-769.71-1031.76z M-717.4-1001.56h-168.8v15.82h175.16
		C-712.41-991.37-714.58-996.68-717.4-1001.56L-717.4-1001.56z M-854.56-941.16v15.82h123.94c5.25-4.47,9.72-9.82,13.2-15.82
		H-854.56L-854.56-941.16z M-730.62-910.96h-123.94v15.82h137.14C-720.9-901.14-725.36-906.49-730.62-910.96L-730.62-910.96z
		 M-886.2-834.73h168.8c2.83-4.88,4.99-10.2,6.37-15.82H-886.2V-834.73L-886.2-834.73z M-1012.76-1015.94h110.74v-15.82h-110.74
		V-1015.94L-1012.76-1015.94z M-1012.76-985.74h110.74v-15.82h-110.74V-985.74L-1012.76-985.74z M-933.66-971.36h-47.46v15.82h47.46
		V-971.36L-933.66-971.36z M-981.12-925.34h47.46v-15.82h-47.46V-925.34L-981.12-925.34z M-981.12-895.13h47.46v-15.82h-47.46
		V-895.13L-981.12-895.13z M-981.12-864.93h47.46v-15.82h-47.46V-864.93L-981.12-864.93z M-1012.76-834.73h110.74v-15.82h-110.74
		V-834.73L-1012.76-834.73z M-1012.76-820.35h110.74v15.82h-110.74V-820.35L-1012.76-820.35z M-413.62-816.57
		c0.97,0,1.51-0.42,1.51-1.33v-0.91c0-0.91-0.54-1.33-1.51-1.33h-2.3v3.56H-413.62L-413.62-816.57z M-415.92-809.92H-419v-12.63
		h5.74c2.84,0,4.29,1.69,4.29,3.99c0,1.99-0.91,3.26-2.3,3.81l2.84,4.83h-3.38l-2.36-4.35h-1.75V-809.92L-415.92-809.92z
		 M-404.86-815.54v-1.57c0-5.07-3.99-9.06-9.24-9.06c-5.26,0-9.24,3.99-9.24,9.06v1.57c0,5.07,3.99,9.06,9.24,9.06
		C-408.85-806.48-404.86-810.47-404.86-815.54L-404.86-815.54z M-426.19-816.33c0-7.07,5.38-12.44,12.08-12.44
		c6.7,0,12.08,5.38,12.08,12.44c0,7.07-5.38,12.45-12.08,12.45C-420.81-803.88-426.19-809.26-426.19-816.33L-426.19-816.33z"/>
</g>
<g>
	<path class="st1" d="M1494.63,350.78c-2.08-5.05-7.05-8.6-12.84-8.6c-7.67,0-13.88,6.22-13.88,13.88c0,1.23,0.16,2.42,0.46,3.56
		h1.52c0.42,0,0.98-0.46,1.13-0.82l2.71-6.85c0.34-0.87,1.19-1.44,2.12-1.44c0.94,0,1.78,0.57,2.12,1.44l4.33,10.97
		c0.19,0.48,0.74,0.87,1.22,0.87h0.93c0.21,0,0.44,0.17,0.53,0.37l0.38,0.97c0.08,0.21-0.02,0.38-0.23,0.38h-2.91
		c-1.26,0-2.72-1.03-3.22-2.29l-3.08-7.81c-0.31-0.78-0.54-1.52-0.74-2.32c-0.2,0.8-0.43,1.54-0.74,2.32l-1.49,3.76
		c-0.47,1.2-1.86,2.18-3.06,2.18h-0.94c2.08,5.05,7.05,8.6,12.84,8.6c7.67,0,13.88-6.22,13.88-13.88c0-1.23-0.16-2.42-0.46-3.56
		h-1.52c-0.42,0-0.98,0.46-1.13,0.82l-2.71,6.85c-0.34,0.87-1.19,1.44-2.12,1.44c-0.94,0-1.78-0.57-2.12-1.44l-4.33-10.97
		c-0.19-0.48-0.74-0.87-1.22-0.87h-0.93c-0.21,0-0.44-0.17-0.53-0.37l-0.38-0.97c-0.08-0.21,0.02-0.38,0.23-0.38h2.91
		c1.26,0,2.72,1.03,3.22,2.29l3.08,7.81c0.31,0.78,0.54,1.52,0.74,2.32c0.2-0.8,0.43-1.54,0.74-2.32l1.49-3.76
		c0.47-1.2,1.86-2.18,3.06-2.18H1494.63z"/>
	<path class="st2" d="M1598.01,350.2l1.19,3c0.26,0.67,0.45,1.31,0.63,2c0.18-0.69,0.36-1.33,0.63-2l1.19-3
		c0.28-0.71,0.97-1.18,1.73-1.18c0.76,0,1.45,0.47,1.73,1.18l3.76,9.53c0.72,1.78-0.14,3.22-1.92,3.22c-1.42,0-1.51,0-2.93,0
		c-0.2,0-0.29-0.16-0.22-0.36l0.36-0.9c0.08-0.19,0.3-0.35,0.5-0.35c0.99,0,0.66,0,1.65,0l-2.93-7.42c-0.26-0.67-0.45-1.31-0.63-2
		c-0.18,0.69-0.36,1.33-0.63,2l-3.43,8.69c-0.08,0.19-0.3,0.35-0.49,0.35h-1.23c-0.2,0-0.29-0.16-0.22-0.36
		c0.49-1.25,0.99-2.5,1.48-3.75l-1.94-4.92c-0.26-0.67-0.45-1.31-0.63-2c-0.18,0.69-0.36,1.33-0.63,2l-2.76,6.99
		c-0.44,1.12-1.74,2.04-2.86,2.04h-1.45c-0.2,0-0.29-0.16-0.22-0.36l0.36-0.9c0.08-0.19,0.3-0.35,0.5-0.35h0.81
		c0.39,0,0.92-0.43,1.05-0.77l4.09-10.36c0.28-0.71,0.97-1.18,1.73-1.18C1597.04,349.02,1597.73,349.49,1598.01,350.2L1598.01,350.2
		z M1556.09,351.74l3.78,9.59h-7.17l1.35-3.43c0.08-0.2-0.02-0.36-0.22-0.36h-1.23c-0.19,0-0.41,0.15-0.49,0.35l-1.15,2.9
		c-0.47,1.2,0.09,2.14,1.28,2.14h8.26c1.78,0,2.64-1.44,1.92-3.22l-3.53-8.95h1.58c0.19,0,0.41-0.16,0.5-0.35l0.36-0.9
		c0.08-0.2-0.02-0.36-0.22-0.36h-3.49C1556.21,349.17,1555.52,350.32,1556.09,351.74L1556.09,351.74z M1508.78,350.2l4.07,10.32
		c0.18,0.45,0.7,0.82,1.15,0.82h0.26c0.19,0,0.41,0.16,0.5,0.35l0.36,0.9c0.08,0.2-0.02,0.36-0.22,0.36h-2.11
		c-1.18,0-2.55-0.96-3.01-2.15c-0.91-2.3-1.81-4.59-2.72-6.89c-0.26-0.67-0.45-1.31-0.63-2c-0.18,0.69-0.36,1.33-0.63,2
		c-0.98,2.48-1.96,4.95-2.93,7.42h2.74c0.19,0,0.41,0.16,0.5,0.35l0.36,0.9c0.08,0.2-0.02,0.36-0.22,0.36h-3.62
		c-1.31,0-1.93-1.04-1.41-2.36l4.1-10.39c0.28-0.71,0.97-1.18,1.73-1.18C1507.81,349.02,1508.5,349.49,1508.78,350.2L1508.78,350.2z
		 M1576.32,349.17c0.2,0,0.29,0.16,0.22,0.36l-0.36,0.9c-0.08,0.19-0.3,0.35-0.5,0.35h-3.64l-4.17,10.56h4.31
		c0.2,0,0.29,0.16,0.22,0.36l-0.36,0.9c-0.08,0.19-0.3,0.35-0.5,0.35h-4.31c-1.78,0-2.64-1.44-1.92-3.22l3.53-8.95h-4.45
		c-0.2,0-0.29-0.16-0.22-0.36l0.36-0.9c0.08-0.19,0.3-0.35,0.5-0.35H1576.32L1576.32,349.17z M1530.76,351.74l3.78,9.59h-7.17
		l1.35-3.43c0.08-0.2-0.02-0.36-0.22-0.36h-1.23c-0.19,0-0.41,0.15-0.49,0.35l-1.15,2.9c-0.47,1.2,0.09,2.14,1.28,2.14h8.26
		c1.78,0,2.64-1.44,1.92-3.22l-3.53-8.95h1.58c0.19,0,0.41-0.16,0.5-0.35l0.36-0.9c0.08-0.2-0.02-0.36-0.22-0.36h-3.49
		C1530.87,349.17,1530.18,350.32,1530.76,351.74L1530.76,351.74z M1543.65,362.55c-0.66-0.37-1.22-0.97-1.49-1.64l-3.7-9.38
		c-0.52-1.32,0.1-2.36,1.41-2.36h2.22c0.2,0,0.29,0.16,0.22,0.36l-0.36,0.9c-0.08,0.19-0.3,0.35-0.5,0.35h-1.34l3.77,9.54
		c0.08,0.19,0.23,0.4,0.43,0.57l3.78-9.57c0.47-1.18,1.83-2.15,3.01-2.15h2.11c0.2,0,0.29,0.16,0.22,0.36l-0.36,0.9
		c-0.08,0.19-0.3,0.35-0.5,0.35h-0.26c-0.45,0-0.97,0.36-1.15,0.82l-5.28,13.37c-0.47,1.18-1.84,2.15-3.01,2.15h-2.81
		c-0.2,0-0.29-0.16-0.22-0.36l0.36-0.9c0.08-0.19,0.3-0.35,0.5-0.35h0.96c0.45,0,0.97-0.36,1.15-0.82L1543.65,362.55L1543.65,362.55
		z M1518.28,361.91c0.28,0.71,0.97,1.18,1.73,1.18c0.76,0,1.45-0.47,1.73-1.18c1.37-3.48,2.72-6.89,4.09-10.36
		c0.13-0.34,0.66-0.77,1.05-0.77h0.81c0.19,0,0.41-0.16,0.5-0.35l0.36-0.9c0.08-0.2-0.02-0.36-0.22-0.36h-1.45
		c-1.13,0-2.42,0.92-2.86,2.04c-0.92,2.33-1.84,4.66-2.76,6.99c-0.26,0.67-0.45,1.31-0.63,2c-0.18-0.69-0.36-1.33-0.63-2
		c-0.91-2.3-1.81-4.59-2.72-6.89c-0.47-1.18-1.83-2.15-3.01-2.15h-2.11c-0.2,0-0.29,0.16-0.22,0.36l0.36,0.9
		c0.08,0.19,0.3,0.35,0.5,0.35h0.26c0.45,0,0.97,0.36,1.15,0.82C1515.57,355.06,1516.91,358.45,1518.28,361.91L1518.28,361.91z
		 M1581.15,358.36h4.27c1.18,0,2.55-0.96,3.01-2.15l1.51-3.82c0.72-1.78-0.14-3.22-1.92-3.22c-2.49,0-3.98,0-6.47,0
		c-1.18,0-2.55,0.96-3.01,2.15l-3.32,8.41c-0.72,1.78,0.14,3.22,1.92,3.22h6.32c0.19,0,0.41-0.16,0.5-0.35l0.36-0.9
		c0.08-0.2-0.02-0.36-0.22-0.36h-6.32l3.84-9.74c0.18-0.45,0.7-0.82,1.15-0.82c1.87,0,2.75,0,4.62,0l-2.03,5.16
		c-0.18,0.45-0.7,0.82-1.15,0.82h-2.42c-0.19,0-0.41,0.16-0.5,0.35l-0.36,0.9C1580.86,358.2,1580.95,358.36,1581.15,358.36z"/>
</g>
<g>
	<path class="st3" d="M1095.96-734.79l-0.51-0.24c-0.05-0.03-6.07-2.74-10.77,2.21l-0.6,0.63l9.63,4.72L1095.96-734.79
		L1095.96-734.79z M1140.06-681.89c0,0-4.2,7.52-6.08,10.29c-1.89,2.8-7.8,4.54-12.91,2.1c-2.34-1.11-24.19-13.86-32.56-13.13
		c-42.34,3.69-53.87-13.75-55.23-15.34c-1.37-1.59-3.91-0.85-2.09,2.27c9.29,15.93,36.77,23.31,36.77,23.31
		c7.19,17.32,8.05,29.45,8.05,29.45c-7.12-5.55-14.8-10.22-22.95-14.1c-21.79-14.62-55.9-32.73-102.85-44.08
		c2.7-37.25,21.49-91.08,109.37-78.35c0,0,17.63,2.89,29.39,11.02c0,0-2.82,2.96-6.54,6.67c-3.71,3.7,0.39,6.07,0.39,6.07
		l18.56,14.59c0.22,7.72,0.54,9.88,6.34,16.87c5.81,6.98,28.39,30.63,31.35,33.79C1142.49-686.79,1140.06-681.89,1140.06-681.89
		L1140.06-681.89z M937.66-754.48c-4.65,19.15-4.29,36.02-1.91,50.2c-4.41-0.88-8.89-1.72-13.5-2.47
		c-96.18-15.65-125.19,31.75-113.96,70.19c-31.8,11.95-61.68,25.63-85.67,39.07c37.75-90.54,119.78-170.22,189.02-180.69
		C934.25-781.18,940.61-766.51,937.66-754.48L937.66-754.48z"/>
	<path class="st4" d="M950.99-671.74c37.47-2.96,72.84,0.8,102.07,14.71c-21.79-14.62-55.9-32.73-102.85-44.08
		C949.27-688.13,950.27-677.18,950.99-671.74L950.99-671.74z M945.58-671.27c-41.99,4.01-91.63,17.55-137.29,34.7
		c-11.23-38.44,17.78-85.84,113.96-70.19c4.62,0.75,9.09,1.59,13.5,2.47C938.04-690.72,942.17-679.59,945.58-671.27L945.58-671.27z"
		/>
	<path class="st3" d="M1508.03-685.59l13.02-31.79l13.03,31.79H1508.03L1508.03-685.59z M1511.38-743.28l-42,98.72h21.99l8.95-21.98
		h41.46l8.96,21.98h22.55l-42.01-98.72H1511.38L1511.38-743.28z M1556.01-731.63v-3.32h1.33l1.94,3.32h1.66l-2.25-3.72
		c0.51-0.2,0.9-0.5,1.18-0.9c0.28-0.4,0.42-0.87,0.42-1.4c0-0.87-0.26-1.52-0.76-1.95c-0.51-0.43-1.31-0.64-2.4-0.64h-2.57v8.62
		H1556.01L1556.01-731.63z M1563.67-735.88c0,3.53-2.86,6.39-6.38,6.39s-6.39-2.86-6.39-6.39c0-3.53,2.86-6.39,6.39-6.39
		S1563.67-739.4,1563.67-735.88L1563.67-735.88z M1557.28-743.28c-4.09,0-7.4,3.32-7.4,7.4c0,4.09,3.32,7.4,7.4,7.4
		c4.09,0,7.4-3.31,7.4-7.4C1564.68-739.97,1561.37-743.28,1557.28-743.28L1557.28-743.28z M1556.01-739h1.05
		c0.61,0,1.06,0.11,1.34,0.32c0.29,0.21,0.43,0.57,0.43,1.06c0,0.42-0.16,0.77-0.48,1.04c-0.32,0.27-0.74,0.41-1.27,0.41h-1.07V-739
		L1556.01-739z M1239.34-708.45c0,8.45-6.34,14.94-17.2,14.94h-17.2v-30.18h16.78c10.86,0,17.62,5.22,17.62,14.95V-708.45
		L1239.34-708.45z M1223.55-743.28h-40.33v98.72h21.72v-29.62h16.49c22.14,0,39.92-11.85,39.92-34.7v-0.28
		C1261.35-729.32,1247.11-743.28,1223.55-743.28L1223.55-743.28z M1379.51-732.26c-10.35,10.11-15.6,22.91-15.6,38.05
		c0,15.15,5.15,27.86,15.32,37.78c10.15,9.92,22.92,14.94,37.95,14.94c17.8,0,31.7-5.39,41.37-16.01l0.5-0.56v-45.31h-42.93v18.34
		h22.39v18.51c-5.8,3.45-13.04,5.2-21.52,5.2c-8.8,0-16.38-3.02-22.56-8.97c-6.16-5.93-9.28-13.96-9.28-23.84
		c0-9.88,3.22-17.95,9.56-23.98c6.36-6.05,14.35-9.13,23.75-9.13c4.94,0,9.32,0.61,13.01,1.81c3.46,1.12,6.97,3.17,10.44,6.03
		l12.01-15.16c-6.34-5.58-17.74-12.93-36.73-12.93C1402.54-747.48,1389.86-742.36,1379.51-732.26L1379.51-732.26z M1298.81-684.04
		h42.52v-19.33h-42.52v-20.6h52.89v-19.31h-74.47v98.72h75.17v-19.32h-53.59V-684.04L1298.81-684.04z"/>
</g>
<g>
	<path id="Magnets" class="st5" d="M762.12-694c0,11.5-9.32,20.82-20.82,20.82c-11.5,0-20.82-9.32-20.82-20.82
		s9.32-20.82,20.82-20.82C752.8-714.82,762.12-705.5,762.12-694z M1578.7-714.82c-11.5,0-20.82,9.32-20.82,20.82
		s9.32,20.82,20.82,20.82s20.82-9.32,20.82-20.82S1590.2-714.82,1578.7-714.82z"/>
	<path id="Wordmark" d="M928.68-638.23h-28.9l-8.12-28.9h-37.49l-7.96,28.9h-28.28l33.43-111.54h43.89L928.68-638.23z
		 M860.41-689.94h24.84l-8.91-32.33h-6.87L860.41-689.94z M1037.72-749.77c26.4,0,41.7,13.44,41.7,36.71
		c0,23.59-15.31,37.34-41.7,37.34h-24.37v37.49h-29.06v-111.54H1037.72z M1033.97-700.56c11.4,0,15.78-4.06,15.78-12.03
		c0-7.97-4.37-11.87-15.78-11.87h-20.62v23.9H1033.97z M1229.08-724.15h-33.43v85.92h-29.06v-85.92h-33.27v-25.62h95.76V-724.15z
		 M1326-638.23h-29.06v-111.54H1326V-638.23z M1393.59-749.77H1424l21.09,84.04h6.87l20.93-84.04h29.79l-31.09,111.54h-46.78
		L1393.59-749.77z"/>
</g>
<g>
	<defs>
		<rect id="SVGID_1_" x="108.11" y="189.88" width="807.77" height="388.24"/>
	</defs>
	<clipPath id="SVGID_2_">
		<use xlink:href="#SVGID_1_"  style="overflow:visible;"/>
	</clipPath>
	<path class="st6" d="M751.26,289.51c26.48,0,47.8,21.33,47.8,47.8c0,16.43-7.6,30.4-20.1,38.98c12.99,8.83,21.82,23.53,21.82,40.45
		c0,27.21-22.31,49.52-49.52,49.52c-27.21,0-49.52-22.31-49.52-49.52c0-16.91,8.58-31.87,21.57-40.69
		c-12.01-8.58-19.61-22.31-19.61-38.73C703.7,310.83,724.78,289.51,751.26,289.51 M751.26,450.17c18.39,0,32.9-15.8,32.9-33.68
		s-14.51-33.68-32.9-33.68c-18.39,0-32.9,15.8-32.9,33.68S732.86,450.17,751.26,450.17 M751.25,304.99
		c-17.87,0-31.28,14.98-31.28,32.33c0,17.35,13.4,32.06,31.28,32.06c17.61,0,31.54-14.72,31.54-32.06
		C782.78,319.97,768.86,304.99,751.25,304.99"/>
	<polygon class="st6" points="639.58,347.89 639.58,304.99 610.33,304.99 610.33,347.89 576.91,347.89 576.91,375.74 683.28,375.74 
		683.28,347.89 	"/>
	<path class="st6" d="M639.58,435.16v-50.58h-29.24v54.9c0,12.99,10.53,23.52,23.52,23.52h49.42v-27.85H639.58z"/>
	<path class="st6" d="M526.06,327.3c2.01,1.94,4.34,3.49,6.97,4.65c2.63,1.16,5.5,1.74,8.6,1.74c3.15,0,6.3-0.72,9.15-2.04
		c2.43-1.13,4.58-2.58,6.43-4.36c2.01-1.94,3.61-4.26,4.77-6.98c1.16-2.71,1.74-5.62,1.74-8.72c0-3.1-0.58-6.01-1.74-8.72
		c-1.16-2.71-2.75-5.04-4.77-6.98c-1.88-1.8-4.06-3.27-6.54-4.41c-2.83-1.29-5.94-1.99-9.05-1.99c-3.1,0-5.97,0.58-8.6,1.74
		c-2.64,1.16-4.96,2.71-6.97,4.65c-2.02,1.94-3.6,4.27-4.77,6.98c-1.17,2.71-1.75,5.62-1.75,8.72c0,3.1,0.58,6.01,1.75,8.72
		C522.45,323.04,524.04,325.36,526.06,327.3"/>
	<rect x="488.26" y="435.16" class="st6" width="101.65" height="27.85"/>
	<polygon class="st6" points="527.25,426.32 556.49,426.32 556.49,347.89 491.66,347.89 491.66,375.74 527.25,375.74 	"/>
	<rect x="360.62" y="347.89" class="st6" width="29.24" height="115.11"/>
	<path class="st6" d="M464.71,369.71c-2.09-5.72-4.99-10.44-8.7-14.16c-3.71-3.71-8.01-6.46-12.88-8.24
		c-4.87-1.78-10.1-2.67-15.66-2.67c-7.89,0-14.78,1.78-20.66,5.34c-3.21,1.94-5.87,4.38-8.11,7.2v19.93
		c4.15-3.97,9.76-6.01,16.92-6.01c7.43,0,13.11,2.36,17.06,7.08c3.94,4.72,5.92,11.18,5.92,19.38v65.45h29.24v-72.87
		C467.84,382.24,466.8,375.44,464.71,369.71"/>
	<path class="st6" d="M260.59,429.35c-4.49-5.41-6.73-12.92-6.73-22.51V304.99h-30.64v101.85c0,18.57,4.91,33.11,14.74,43.63
		c8.9,9.53,21.74,14.7,38.45,15.6v-28.99C269.51,436.23,264.19,433.7,260.59,429.35"/>
	<path class="st6" d="M309.56,304.99v101.85c0,9.6-2.25,17.1-6.73,22.51c-3.61,4.35-8.93,6.87-15.82,7.73v28.99
		c16.71-0.9,29.55-6.06,38.45-15.6c9.82-10.52,14.73-25.07,14.73-43.63V304.99H309.56z"/>
	<polygon class="st6" points="814.92,461.05 814.92,446.9 809.86,446.9 809.86,444.32 822.92,444.32 822.92,446.9 817.86,446.9 
		817.86,461.05 	"/>
	<polygon class="st6" points="839.85,461.05 839.85,448.13 834.74,461.05 833.48,461.05 828.34,448.13 828.34,461.05 825.41,461.05 
		825.41,444.32 829.55,444.32 834.11,455.8 838.65,444.32 842.79,444.32 842.79,461.05 	"/>
</g>
<g>
	<g>
		<g>
			<g>
				<path class="st7" d="M1671.83,293.32c-1.23,3.5-4.62,5.8-10.18,5.8c-4.63,0-9.09-2.69-7.99-8.86c0.92-5.19,5.69-8.65,11.14-8.65
					c6.11,0,8.77,4.19,7.78,9.08l-0.24,1.12h-11.47c-0.04,0.13-0.18,0.66-0.18,1.25c0,1.47,0.78,1.98,1.77,1.98
					c1.02,0,1.9-0.57,2.39-1.72H1671.83z M1665.92,288.32l0.08-0.38c0.24-1.28-0.37-2.24-1.71-2.24c-1.23,0-2.29,0.89-2.66,2.63
					H1665.92"/>
				<path class="st7" d="M1652.6,281.9c-1.76,0-3.17,1.01-4.12,2.32h-0.14l0.25-2.12h-7.38l-0.45,2.15l4.08-0.43l-0.09,0.41
					l-4.14,0.67l-2.91,13.72h7.96c0,0,0.82-3.94,1.32-6.25c0.8-3.68,2.82-4.52,4.17-4.52c1.14,0,1.85,0.51,2.02,0.66l1.3-6.14
					C1654.34,282.3,1653.66,281.9,1652.6,281.9"/>
				<path class="st7" d="M1580.16,288.96c-3.2-1.01-5.62-2.9-5.62-6.48c0-5.23,5.22-8.23,12.21-8.24c5.92-0.02,9.84,2.45,9.15,7.37
					l-8.42,0c0.3-1.34-0.48-2.11-1.92-2.11c-1.12,0-1.99,0.58-2.13,1.26c-0.2,0.97,0.43,1.59,1.94,2c1.27,0.35,2.14,0.58,3.39,0.94
					c3.56,1.02,5.27,3.15,5.71,5.37l-10.59,1.09L1580.16,288.96z M1580.46,294.64l0.7-3.36h-9.04c-0.63,5.69,3.84,7.96,9.56,7.96
					c5.5,0,11.31-1.83,12.6-6.85L1580.46,294.64"/>
				<path class="st7" d="M1627.37,283.31c0.63-0.51,2.18-1.7,4.55-1.7c2.41,0,4.25,1.05,5.18,3.02l-18.49,1.93l2.48-11.69h7.96
					l-1.79,8.44H1627.37z M1626.94,287.11c-0.52,0.69-0.94,1.7-1.27,3.21c-0.71,3.27,0.06,4.12,1.03,4.12
					c1.29,0,2.38-1.23,2.92-4.08c0.34-1.82,0.29-3.12-0.2-3.66l7.98-1.29c0.39,1.27,0.46,2.89,0.08,4.75
					c-1.17,5.87-4.76,8.95-8.77,8.95c-1.82,0-3.8-0.47-4.62-2.41h-0.17l-0.65,1.91h-7.22l2.14-10.09L1626.94,287.11"/>
				<path class="st7" d="M1607,292.8c-0.24,1.25-1.09,2.24-2.29,2.24c-1.13,0-1.64-0.92-1.42-1.93c0.18-0.85,1.07-1.7,2.71-1.7h1.3
					L1607,292.8z M1604.98,287.13c0.22-1.02,1-1.84,1.99-1.84c1.01,0,1.42,0.86,1.24,1.73l-0.13,0.63l7.46-0.78
					c-0.56-3.81-4.13-5.46-8.26-5.46c-6.16,0-9.11,3.06-9.69,5.77l-0.08,0.38h7.38L1604.98,287.13z M1595.8,292.15
					c-0.22,0.64-0.33,1.35-0.33,2.12c0,2.6,1.95,4.84,5.2,4.84c2.98,0,4.68-1.25,5.46-2.08h0.1l-0.15,1.58h7.48l1.84-8.6
					c0.08-0.37,0.14-0.73,0.17-1.07L1595.8,292.15"/>
			</g>
		</g>
	</g>
	<g>
		<path class="st7" d="M1673.45,295.61c0.9,0,1.62,0.73,1.62,1.65c0,0.93-0.72,1.66-1.63,1.66c-0.9,0-1.64-0.73-1.64-1.66
			C1671.8,296.34,1672.54,295.61,1673.45,295.61L1673.45,295.61z M1673.44,295.87c-0.73,0-1.32,0.62-1.32,1.39
			c0,0.79,0.59,1.4,1.33,1.4c0.73,0.01,1.32-0.62,1.32-1.4C1674.77,296.49,1674.18,295.87,1673.44,295.87L1673.44,295.87z
			 M1673.13,298.22h-0.29v-1.84c0.15-0.02,0.3-0.04,0.52-0.04c0.28,0,0.46,0.06,0.57,0.14c0.11,0.08,0.17,0.21,0.17,0.38
			c0,0.24-0.16,0.39-0.36,0.45v0.01c0.16,0.03,0.27,0.18,0.31,0.45c0.04,0.29,0.09,0.4,0.12,0.46h-0.31
			c-0.05-0.06-0.09-0.23-0.12-0.47c-0.05-0.24-0.16-0.32-0.4-0.32h-0.21V298.22z M1673.13,297.2h0.21c0.24,0,0.45-0.09,0.45-0.32
			c0-0.16-0.12-0.32-0.45-0.32c-0.1,0-0.16,0.01-0.21,0.02V297.2z"/>
	</g>
</g>
</svg>
