<?xml version="1.0" encoding="utf-8"?>
<!-- Generator: Adobe Illustrator 23.0.1, SVG Export Plug-In . SVG Version: 6.00 Build 0)  -->
<svg version="1.1" id="Warstwa_1" xmlns="http://www.w3.org/2000/svg" xmlns:xlink="http://www.w3.org/1999/xlink" x="0px" y="0px"
	 viewBox="0 0 1024 768" style="enable-background:new 0 0 1024 768;" xml:space="preserve">
<style type="text/css">
	.st0{fill:#4565AD;}
	.st1{fill-rule:evenodd;clip-rule:evenodd;fill:#FFD600;}
	.st2{fill-rule:evenodd;clip-rule:evenodd;fill:#3A3938;}
	.st3{fill:#2B2577;}
	.st4{fill:#009DB1;}
	.st5{fill:#E84424;}
	.st6{clip-path:url(#SVGID_2_);}
	.st7{fill:#DD0F19;}
</style>
<g>
	<path class="st0" d="M-600.25-1015.94l-5.5-15.82h-90.61v15.82H-600.25L-600.25-1015.94z M-589.75-985.74l-5.5-15.82h-101.11v15.82
		H-589.75L-589.75-985.74z M-522.34-804.53h79.1v-15.82h-79.1V-804.53L-522.34-804.53z M-522.34-834.73h79.1v-15.82h-79.1V-834.73
		L-522.34-834.73z M-522.34-864.93h47.46v-15.82h-47.46V-864.93L-522.34-864.93z M-474.88-910.96h-47.46v15.82h47.46V-910.96
		L-474.88-910.96z M-522.34-925.34h47.46v-15.82h-90.47l-4.45,12.79l-4.45-12.79h-90.47v15.82h47.46v-14.54l5.1,14.54h84.71
		l5.1-14.54V-925.34L-522.34-925.34z M-474.88-971.36h-79.97l-5.5,15.82h85.47V-971.36L-474.88-971.36z M-664.72-895.13h47.46
		v-15.82h-47.46V-895.13L-664.72-895.13z M-664.72-864.93h47.46v-15.82h-47.46V-864.93L-664.72-864.93z M-696.36-834.73h79.1v-15.82
		h-79.1V-834.73L-696.36-834.73z M-696.36-804.53h79.1v-15.82h-79.1V-804.53L-696.36-804.53z M-533.84-1031.76l-5.5,15.82h96.11
		v-15.82H-533.84L-533.84-1031.76z M-549.85-985.74h106.61v-15.82h-101.11L-549.85-985.74L-549.85-985.74z M-664.72-955.54h85.47
		l-5.5-15.82h-79.97V-955.54L-664.72-955.54z M-601.55-895.13h63.51l5.55-15.82h-74.61L-601.55-895.13L-601.55-895.13z
		 M-590.95-864.93h42.3l5.55-15.82h-53.41L-590.95-864.93L-590.95-864.93z M-580.35-834.73h21.1l5.55-15.82h-32.2L-580.35-834.73
		L-580.35-834.73z M-569.8-804.53l5.5-15.82h-11L-569.8-804.53L-569.8-804.53z M-886.2-804.53h116.49c15.82,0,30.01-6,40.75-15.82
		H-886.2V-804.53L-886.2-804.53z M-762.52-880.75v15.82h53.21c0-5.48-0.75-10.78-2.12-15.82H-762.52L-762.52-880.75z
		 M-854.56-864.93h47.46v-15.82h-47.46V-864.93L-854.56-864.93z M-762.52-955.54h51.1c1.37-5.05,2.12-10.34,2.12-15.82h-53.21
		V-955.54L-762.52-955.54z M-854.56-955.54h47.46v-15.82h-47.46V-955.54L-854.56-955.54z M-769.71-1031.76H-886.2v15.82h157.24
		C-739.7-1025.77-754-1031.76-769.71-1031.76L-769.71-1031.76z M-717.4-1001.56h-168.8v15.82h175.16
		C-712.41-991.37-714.58-996.68-717.4-1001.56L-717.4-1001.56z M-854.56-941.16v15.82h123.94c5.25-4.47,9.72-9.82,13.2-15.82
		H-854.56L-854.56-941.16z M-730.62-910.96h-123.94v15.82h137.14C-720.9-901.14-725.36-906.49-730.62-910.96L-730.62-910.96z
		 M-886.2-834.73h168.8c2.83-4.88,4.99-10.2,6.37-15.82H-886.2V-834.73L-886.2-834.73z M-1012.76-1015.94h110.74v-15.82h-110.74
		V-1015.94L-1012.76-1015.94z M-1012.76-985.74h110.74v-15.82h-110.74V-985.74L-1012.76-985.74z M-933.66-971.36h-47.46v15.82h47.46
		V-971.36L-933.66-971.36z M-981.12-925.34h47.46v-15.82h-47.46V-925.34L-981.12-925.34z M-981.12-895.13h47.46v-15.82h-47.46
		V-895.13L-981.12-895.13z M-981.12-864.93h47.46v-15.82h-47.46V-864.93L-981.12-864.93z M-1012.76-834.73h110.74v-15.82h-110.74
		V-834.73L-1012.76-834.73z M-1012.76-820.35h110.74v15.82h-110.74V-820.35L-1012.76-820.35z M-413.62-816.57
		c0.97,0,1.51-0.42,1.51-1.33v-0.91c0-0.91-0.54-1.33-1.51-1.33h-2.3v3.56H-413.62L-413.62-816.57z M-415.92-809.92H-419v-12.63
		h5.74c2.84,0,4.29,1.69,4.29,3.99c0,1.99-0.91,3.26-2.3,3.81l2.84,4.83h-3.38l-2.36-4.35h-1.75V-809.92L-415.92-809.92z
		 M-404.86-815.54v-1.57c0-5.07-3.99-9.06-9.24-9.06c-5.26,0-9.24,3.99-9.24,9.06v1.57c0,5.07,3.99,9.06,9.24,9.06
		C-408.85-806.48-404.86-810.47-404.86-815.54L-404.86-815.54z M-426.19-816.33c0-7.07,5.38-12.44,12.08-12.44
		c6.7,0,12.08,5.38,12.08,12.44c0,7.07-5.38,12.45-12.08,12.45C-420.81-803.88-426.19-809.26-426.19-816.33L-426.19-816.33z"/>
</g>
<g>
	<path class="st1" d="M249.7,352.43c-12.42-30.17-42.12-51.42-76.76-51.42c-45.82,0-82.99,37.16-82.99,82.99
		c0,7.36,0.96,14.49,2.76,21.28h9.07c2.5,0,5.88-2.77,6.73-4.93l16.17-40.96c2.05-5.21,7.09-8.63,12.69-8.63
		c5.61,0,10.64,3.42,12.7,8.63l25.87,65.55c1.14,2.89,4.44,5.21,7.32,5.21h5.58c1.24,0,2.65,0.99,3.17,2.23l2.28,5.77
		c0.5,1.26-0.12,2.29-1.38,2.29h-17.39c-7.55,0-16.28-6.15-19.26-13.72l-18.43-46.7c-1.85-4.69-3.21-9.09-4.43-13.88
		c-1.22,4.8-2.59,9.2-4.43,13.88l-8.88,22.5c-2.83,7.18-11.1,13.03-18.3,13.03h-5.61c12.42,30.17,42.12,51.42,76.76,51.42
		c45.83,0,82.99-37.16,82.99-82.99c0-7.36-0.96-14.49-2.76-21.28h-9.07c-2.5,0-5.88,2.77-6.73,4.93l-16.17,40.96
		c-2.05,5.21-7.09,8.63-12.69,8.63c-5.61,0-10.64-3.42-12.7-8.63l-25.87-65.55c-1.14-2.89-4.44-5.21-7.32-5.21h-5.58
		c-1.24,0-2.65-0.99-3.17-2.23l-2.28-5.77c-0.5-1.26,0.12-2.29,1.38-2.29h17.39c7.56,0,16.28,6.15,19.26,13.72l18.43,46.7
		c1.85,4.69,3.21,9.09,4.43,13.88c1.22-4.8,2.59-9.2,4.43-13.88l8.88-22.5c2.83-7.18,11.1-13.03,18.3-13.03H249.7z"/>
	<path class="st2" d="M867.68,348.98l7.09,17.95c1.57,3.99,2.7,7.83,3.75,11.97c1.05-4.14,2.18-7.98,3.75-11.97l7.09-17.96
		c1.67-4.24,5.78-7.03,10.35-7.03c4.57,0,8.67,2.79,10.35,7.03l22.48,56.94c4.29,10.63-0.84,19.25-11.48,19.25
		c-8.48,0-9.01,0-17.49,0c-1.18,0-1.76-0.96-1.3-2.14l2.13-5.4c0.49-1.16,1.8-2.08,2.96-2.08c5.94,0,3.94,0,9.88,0l-17.52-44.38
		c-1.57-3.99-2.7-7.83-3.75-11.97c-1.05,4.14-2.17,7.98-3.75,11.97l-20.51,51.94c-0.49,1.15-1.8,2.07-2.96,2.07h-7.35
		c-1.18,0-1.76-0.96-1.29-2.14c2.95-7.48,5.9-14.96,8.85-22.44l-11.62-29.43c-1.57-3.99-2.7-7.83-3.75-11.97
		c-1.05,4.14-2.18,7.98-3.75,11.97l-16.51,41.82c-2.65,6.72-10.39,12.19-17.12,12.19h-8.64c-1.18,0-1.76-0.96-1.29-2.14l2.13-5.4
		c0.48-1.16,1.8-2.08,2.96-2.08h4.85c2.34,0,5.5-2.6,6.3-4.61l24.46-61.96c1.67-4.24,5.78-7.03,10.35-7.03
		C861.9,341.94,866,344.73,867.68,348.98L867.68,348.98z M617.12,358.21l22.62,57.33H596.9l8.08-20.49
		c0.47-1.18-0.11-2.14-1.29-2.14h-7.35c-1.16,0-2.47,0.92-2.96,2.07l-6.85,17.36c-2.82,7.16,0.56,12.82,7.64,12.82h49.37
		c10.63,0,15.77-8.62,11.48-19.25l-21.11-53.48h9.44c1.16,0,2.48-0.93,2.96-2.08l2.13-5.4c0.47-1.18-0.11-2.14-1.29-2.14H626.3
		C617.79,342.81,613.68,349.71,617.12,358.21L617.12,358.21z M334.27,348.98l24.35,61.69c1.07,2.7,4.16,4.88,6.85,4.88H367
		c1.16,0,2.48,0.93,2.96,2.08l2.13,5.4c0.47,1.18-0.11,2.14-1.29,2.14h-12.58c-7.08,0-15.23-5.76-18.02-12.84
		c-5.41-13.72-10.83-27.45-16.25-41.17c-1.57-3.99-2.7-7.83-3.75-11.97c-1.05,4.14-2.18,7.98-3.75,11.97
		c-5.84,14.8-11.69,29.58-17.53,44.38h16.38c1.16,0,2.48,0.93,2.96,2.08l2.13,5.4c0.47,1.18-0.11,2.14-1.3,2.14h-21.62
		c-7.8,0-11.52-6.23-8.41-14.11l24.52-62.09c1.67-4.24,5.78-7.03,10.34-7.03C328.49,341.94,332.59,344.73,334.27,348.98
		L334.27,348.98z M738,342.81c1.18,0,1.76,0.96,1.29,2.14l-2.13,5.4c-0.48,1.16-1.8,2.08-2.96,2.08h-21.75l-24.9,63.11h25.74
		c1.18,0,1.76,0.96,1.3,2.14l-2.13,5.41c-0.48,1.16-1.8,2.08-2.96,2.08h-25.75c-10.63,0-15.77-8.62-11.48-19.25l21.11-53.48h-26.58
		c-1.18,0-1.76-0.96-1.29-2.14l2.13-5.41c0.49-1.16,1.8-2.08,2.96-2.08H738L738,342.81z M465.64,358.21l22.63,57.33h-42.84
		l8.08-20.49c0.47-1.18-0.11-2.14-1.29-2.14h-7.35c-1.16,0-2.47,0.92-2.96,2.07l-6.85,17.36c-2.82,7.16,0.56,12.82,7.64,12.82h49.37
		c10.63,0,15.77-8.62,11.48-19.25l-21.11-53.48h9.44c1.16,0,2.48-0.93,2.96-2.08l2.13-5.4c0.47-1.18-0.11-2.14-1.29-2.14h-20.87
		C466.31,342.81,462.2,349.71,465.64,358.21L465.64,358.21z M542.7,422.78c-3.92-2.22-7.32-5.79-8.9-9.81l-22.13-56.06
		c-3.11-7.88,0.61-14.11,8.41-14.11h13.24c1.18,0,1.76,0.96,1.29,2.14l-2.13,5.4c-0.48,1.16-1.8,2.08-2.96,2.08h-8l22.51,57.01
		c0.45,1.14,1.4,2.37,2.57,3.43l22.58-57.23c2.79-7.08,10.94-12.84,18.02-12.84h12.59c1.18,0,1.76,0.96,1.29,2.14l-2.13,5.4
		c-0.48,1.16-1.8,2.08-2.96,2.08h-1.53c-2.69,0-5.78,2.18-6.85,4.88l-31.55,79.93c-2.79,7.08-10.97,12.84-18.02,12.84h-16.81
		c-1.18,0-1.76-0.96-1.3-2.14l2.13-5.4c0.49-1.16,1.8-2.08,2.96-2.08h5.76c2.69,0,5.78-2.18,6.85-4.88L542.7,422.78L542.7,422.78z
		 M391.05,419.01c1.67,4.24,5.78,7.03,10.35,7.03c4.57,0,8.67-2.79,10.34-7.03c8.2-20.79,16.26-41.17,24.46-61.96
		c0.8-2.02,3.95-4.61,6.3-4.61h4.84c1.16,0,2.48-0.93,2.96-2.08l2.13-5.4c0.47-1.18-0.11-2.14-1.29-2.14h-8.64
		c-6.73,0-14.47,5.47-17.12,12.19c-5.5,13.94-11,27.87-16.51,41.81c-1.57,3.99-2.7,7.83-3.75,11.97c-1.05-4.14-2.17-7.98-3.75-11.97
		c-5.42-13.72-10.84-27.45-16.25-41.17c-2.79-7.08-10.94-12.84-18.02-12.84h-12.59c-1.18,0-1.76,0.96-1.29,2.14l2.13,5.4
		c0.48,1.16,1.8,2.08,2.96,2.08h1.53c2.69,0,5.78,2.18,6.85,4.88C374.87,378.01,382.88,398.31,391.05,419.01L391.05,419.01z
		 M766.9,397.76h25.54c7.08,0,15.23-5.76,18.02-12.84l9.02-22.86c4.29-10.63-0.84-19.25-11.47-19.25c-14.87,0-23.8,0-38.67,0
		c-7.07,0-15.23,5.76-18.02,12.84l-19.84,50.27c-4.29,10.63,0.84,19.25,11.48,19.25h37.76c1.16,0,2.48-0.93,2.96-2.08l2.13-5.41
		c0.47-1.18-0.11-2.14-1.29-2.14h-37.75l22.98-58.23c1.07-2.7,4.16-4.88,6.85-4.88c11.18,0,16.42,0,27.6,0l-12.16,30.82
		c-1.07,2.7-4.16,4.88-6.85,4.88h-14.49c-1.16,0-2.48,0.93-2.96,2.08l-2.13,5.4C765.14,396.8,765.72,397.76,766.9,397.76z"/>
</g>
<g>
	<path class="st3" d="M998.96-595.79l-0.51-0.24c-0.05-0.03-6.07-2.74-10.77,2.21l-0.6,0.63l9.63,4.72L998.96-595.79L998.96-595.79z
		 M1043.06-542.89c0,0-4.2,7.52-6.08,10.29c-1.89,2.8-7.8,4.54-12.91,2.1c-2.34-1.11-24.19-13.86-32.56-13.13
		c-42.34,3.69-53.87-13.75-55.23-15.34c-1.37-1.59-3.91-0.85-2.09,2.27c9.29,15.93,36.77,23.31,36.77,23.31
		c7.19,17.32,8.05,29.45,8.05,29.45c-7.12-5.55-14.8-10.22-22.95-14.1c-21.79-14.62-55.9-32.73-102.85-44.08
		c2.7-37.25,21.49-91.08,109.37-78.35c0,0,17.63,2.89,29.39,11.02c0,0-2.82,2.96-6.54,6.67c-3.71,3.7,0.39,6.07,0.39,6.07
		l18.56,14.59c0.22,7.72,0.54,9.88,6.34,16.87c5.81,6.98,28.39,30.63,31.35,33.79C1045.49-547.79,1043.06-542.89,1043.06-542.89
		L1043.06-542.89z M840.66-615.48c-4.65,19.15-4.29,36.02-1.91,50.2c-4.41-0.88-8.89-1.72-13.5-2.47
		c-96.18-15.65-125.19,31.75-113.96,70.19c-31.8,11.95-61.68,25.63-85.67,39.07c37.75-90.54,119.78-170.22,189.02-180.69
		C837.25-642.18,843.61-627.51,840.66-615.48L840.66-615.48z"/>
	<path class="st4" d="M853.99-532.74c37.47-2.96,72.84,0.8,102.07,14.71c-21.79-14.62-55.9-32.73-102.85-44.08
		C852.27-549.13,853.27-538.18,853.99-532.74L853.99-532.74z M848.58-532.27c-41.99,4.01-91.63,17.55-137.29,34.7
		c-11.23-38.44,17.78-85.84,113.96-70.19c4.62,0.75,9.09,1.59,13.5,2.47C841.04-551.72,845.17-540.59,848.58-532.27L848.58-532.27z"
		/>
	<path class="st3" d="M1411.03-546.59l13.02-31.79l13.03,31.79H1411.03L1411.03-546.59z M1414.38-604.28l-42,98.72h21.99l8.95-21.98
		h41.46l8.96,21.98h22.55l-42.01-98.72H1414.38L1414.38-604.28z M1459.01-592.63v-3.32h1.33l1.94,3.32h1.66l-2.25-3.72
		c0.51-0.2,0.9-0.5,1.18-0.9c0.28-0.4,0.42-0.87,0.42-1.4c0-0.87-0.26-1.52-0.76-1.95c-0.51-0.43-1.31-0.64-2.4-0.64h-2.57v8.62
		H1459.01L1459.01-592.63z M1466.67-596.88c0,3.53-2.86,6.39-6.38,6.39s-6.39-2.86-6.39-6.39c0-3.53,2.86-6.39,6.39-6.39
		S1466.67-600.4,1466.67-596.88L1466.67-596.88z M1460.28-604.28c-4.09,0-7.4,3.32-7.4,7.4c0,4.09,3.32,7.4,7.4,7.4
		c4.09,0,7.4-3.31,7.4-7.4C1467.68-600.97,1464.37-604.28,1460.28-604.28L1460.28-604.28z M1459.01-600h1.05
		c0.61,0,1.06,0.11,1.34,0.32c0.29,0.21,0.43,0.57,0.43,1.06c0,0.42-0.16,0.77-0.48,1.04c-0.32,0.27-0.74,0.41-1.27,0.41h-1.07V-600
		L1459.01-600z M1142.34-569.45c0,8.45-6.34,14.94-17.2,14.94h-17.2v-30.18h16.78c10.86,0,17.62,5.22,17.62,14.95V-569.45
		L1142.34-569.45z M1126.55-604.28h-40.33v98.72h21.72v-29.62h16.49c22.14,0,39.92-11.85,39.92-34.7v-0.28
		C1164.35-590.32,1150.11-604.28,1126.55-604.28L1126.55-604.28z M1282.51-593.26c-10.35,10.11-15.6,22.91-15.6,38.05
		c0,15.15,5.15,27.86,15.32,37.78c10.15,9.92,22.92,14.94,37.95,14.94c17.8,0,31.7-5.39,41.37-16.01l0.5-0.56v-45.31h-42.93v18.34
		h22.39v18.51c-5.8,3.45-13.04,5.2-21.52,5.2c-8.8,0-16.38-3.02-22.56-8.97c-6.16-5.93-9.28-13.96-9.28-23.84
		c0-9.88,3.22-17.95,9.56-23.98c6.36-6.05,14.35-9.13,23.75-9.13c4.94,0,9.32,0.61,13.01,1.81c3.46,1.12,6.97,3.17,10.44,6.03
		l12.01-15.16c-6.34-5.58-17.74-12.93-36.73-12.93C1305.54-608.48,1292.86-603.36,1282.51-593.26L1282.51-593.26z M1201.81-545.04
		h42.52v-19.33h-42.52v-20.6h52.89v-19.31h-74.47v98.72h75.17v-19.32h-53.59V-545.04L1201.81-545.04z"/>
</g>
<g>
	<path id="Magnets" class="st5" d="M762.12-694c0,11.5-9.32,20.82-20.82,20.82c-11.5,0-20.82-9.32-20.82-20.82
		s9.32-20.82,20.82-20.82C752.8-714.82,762.12-705.5,762.12-694z M1578.7-714.82c-11.5,0-20.82,9.32-20.82,20.82
		s9.32,20.82,20.82,20.82s20.82-9.32,20.82-20.82S1590.2-714.82,1578.7-714.82z"/>
	<path id="Wordmark" d="M928.68-638.23h-28.9l-8.12-28.9h-37.49l-7.96,28.9h-28.28l33.43-111.54h43.89L928.68-638.23z
		 M860.41-689.94h24.84l-8.91-32.33h-6.87L860.41-689.94z M1037.72-749.77c26.4,0,41.7,13.44,41.7,36.71
		c0,23.59-15.31,37.34-41.7,37.34h-24.37v37.49h-29.06v-111.54H1037.72z M1033.97-700.56c11.4,0,15.78-4.06,15.78-12.03
		c0-7.97-4.37-11.87-15.78-11.87h-20.62v23.9H1033.97z M1229.08-724.15h-33.43v85.92h-29.06v-85.92h-33.27v-25.62h95.76V-724.15z
		 M1326-638.23h-29.06v-111.54H1326V-638.23z M1393.59-749.77H1424l21.09,84.04h6.87l20.93-84.04h29.79l-31.09,111.54h-46.78
		L1393.59-749.77z"/>
</g>
<g>
	<defs>
		<rect id="SVGID_1_" x="-334.89" y="-577.12" width="807.77" height="388.24"/>
	</defs>
	<clipPath id="SVGID_2_">
		<use xlink:href="#SVGID_1_"  style="overflow:visible;"/>
	</clipPath>
	<path class="st6" d="M308.26-477.49c26.48,0,47.8,21.33,47.8,47.8c0,16.43-7.6,30.4-20.1,38.98c12.99,8.83,21.82,23.53,21.82,40.45
		c0,27.21-22.31,49.52-49.52,49.52c-27.21,0-49.52-22.31-49.52-49.52c0-16.91,8.58-31.87,21.57-40.69
		c-12.01-8.58-19.61-22.31-19.61-38.73C260.7-456.17,281.78-477.49,308.26-477.49 M308.26-316.83c18.39,0,32.9-15.8,32.9-33.68
		s-14.51-33.68-32.9-33.68c-18.39,0-32.9,15.8-32.9,33.68S289.86-316.83,308.26-316.83 M308.25-462.01
		c-17.87,0-31.28,14.98-31.28,32.33c0,17.35,13.4,32.06,31.28,32.06c17.61,0,31.54-14.72,31.54-32.06
		C339.78-447.03,325.86-462.01,308.25-462.01"/>
	<polygon class="st6" points="196.58,-419.11 196.58,-462.01 167.33,-462.01 167.33,-419.11 133.91,-419.11 133.91,-391.26 
		240.28,-391.26 240.28,-419.11 	"/>
	<path class="st6" d="M196.58-331.84v-50.58h-29.24v54.9c0,12.99,10.53,23.52,23.52,23.52h49.42v-27.85H196.58z"/>
	<path class="st6" d="M83.06-439.7c2.01,1.94,4.34,3.49,6.97,4.65c2.63,1.16,5.5,1.74,8.6,1.74c3.15,0,6.3-0.72,9.15-2.04
		c2.43-1.13,4.58-2.58,6.43-4.36c2.01-1.94,3.61-4.26,4.77-6.98c1.16-2.71,1.74-5.62,1.74-8.72c0-3.1-0.58-6.01-1.74-8.72
		c-1.16-2.71-2.75-5.04-4.77-6.98c-1.88-1.8-4.06-3.27-6.54-4.41c-2.83-1.29-5.94-1.99-9.05-1.99c-3.1,0-5.97,0.58-8.6,1.74
		c-2.64,1.16-4.96,2.71-6.97,4.65c-2.02,1.94-3.6,4.27-4.77,6.98c-1.17,2.71-1.75,5.62-1.75,8.72c0,3.1,0.58,6.01,1.75,8.72
		C79.45-443.96,81.04-441.64,83.06-439.7"/>
	<rect x="45.26" y="-331.84" class="st6" width="101.65" height="27.85"/>
	<polygon class="st6" points="84.25,-340.68 113.49,-340.68 113.49,-419.11 48.66,-419.11 48.66,-391.26 84.25,-391.26 	"/>
	<rect x="-82.38" y="-419.11" class="st6" width="29.24" height="115.11"/>
	<path class="st6" d="M21.71-397.29c-2.09-5.72-4.99-10.44-8.7-14.16c-3.71-3.71-8.01-6.46-12.88-8.24
		c-4.87-1.78-10.1-2.67-15.66-2.67c-7.89,0-14.78,1.78-20.66,5.34c-3.21,1.94-5.87,4.38-8.11,7.2v19.93
		c4.15-3.97,9.76-6.01,16.92-6.01c7.43,0,13.11,2.36,17.06,7.08c3.94,4.72,5.92,11.18,5.92,19.38v65.45h29.24v-72.87
		C24.84-384.76,23.8-391.56,21.71-397.29"/>
	<path class="st6" d="M-182.41-337.65c-4.49-5.41-6.73-12.92-6.73-22.51v-101.85h-30.64v101.85c0,18.57,4.91,33.11,14.74,43.63
		c8.9,9.53,21.74,14.7,38.45,15.6v-28.99C-173.49-330.77-178.81-333.3-182.41-337.65"/>
	<path class="st6" d="M-133.44-462.01v101.85c0,9.6-2.25,17.1-6.73,22.51c-3.61,4.35-8.93,6.87-15.82,7.73v28.99
		c16.71-0.9,29.55-6.06,38.45-15.6c9.82-10.52,14.73-25.07,14.73-43.63v-101.85H-133.44z"/>
	<polygon class="st6" points="371.92,-305.95 371.92,-320.1 366.86,-320.1 366.86,-322.68 379.92,-322.68 379.92,-320.1 
		374.86,-320.1 374.86,-305.95 	"/>
	<polygon class="st6" points="396.85,-305.95 396.85,-318.87 391.74,-305.95 390.48,-305.95 385.34,-318.87 385.34,-305.95 
		382.41,-305.95 382.41,-322.68 386.55,-322.68 391.11,-311.2 395.65,-322.68 399.79,-322.68 399.79,-305.95 	"/>
</g>
<g>
	<g>
		<g>
			<g>
				<path class="st7" d="M1296.92-677.32c-7.25,20.58-27.19,34.09-59.89,34.09c-27.22,0-53.46-15.84-46.99-52.1
					c5.42-30.53,33.46-50.87,65.54-50.87c35.92,0,51.61,24.67,45.79,53.42l-1.4,6.59h-67.47c-0.21,0.76-1.07,3.9-1.07,7.34
					c0,8.63,4.58,11.64,10.4,11.64c6.02,0,11.2-3.36,14.04-10.1H1296.92z M1262.13-706.72l0.48-2.26c1.43-7.51-2.18-13.2-10.05-13.2
					c-7.26,0-13.44,5.21-15.62,15.47H1262.13"/>
				<path class="st7" d="M1183.8-744.49c-10.35,0-18.63,5.96-24.23,13.64h-0.85l1.45-12.46h-43.43l-2.65,12.64l23.97-2.5l-0.53,2.39
					l-24.33,3.95l-17.13,80.7h46.84c0,0,4.84-23.18,7.79-36.77c4.72-21.66,16.6-26.56,24.52-26.56c6.69,0,10.86,3.01,11.9,3.86
					l7.67-36.12C1194.04-742.15,1190.05-744.49,1183.8-744.49"/>
				<path class="st7" d="M757.66-702.95c-18.85-5.97-33.07-17.06-33.07-38.1c0-30.77,30.71-48.39,71.82-48.48
					c34.82-0.13,57.87,14.38,53.81,43.33l-49.55,0c1.75-7.91-2.8-12.4-11.28-12.4c-6.59,0-11.69,3.41-12.5,7.41
					c-1.15,5.73,2.51,9.34,11.4,11.75c7.49,2.04,12.61,3.4,19.97,5.51c20.96,6,30.98,18.51,33.58,31.61l-62.27,6.43L757.66-702.95z
					 M759.43-669.56l4.11-19.75h-53.16c-3.69,33.44,22.57,46.85,56.26,46.85c32.33,0,66.51-10.79,74.13-40.29L759.43-669.56"/>
				<path class="st7" d="M1035.36-736.23c3.69-3.01,12.8-9.98,26.74-9.98c14.15,0,25.03,6.15,30.45,17.76L983.8-717.12l14.61-68.78
					h46.84l-10.55,49.67H1035.36z M1032.82-713.86c-3.05,4.08-5.51,9.99-7.45,18.88c-4.17,19.23,0.36,24.26,6.05,24.26
					c7.59,0,14.01-7.21,17.16-23.98c2.02-10.68,1.71-18.37-1.18-21.51l46.95-7.6c2.3,7.45,2.68,17.02,0.48,27.93
					c-6.88,34.54-28.02,52.66-51.62,52.66c-10.68,0-22.35-2.78-27.2-14.16h-0.99l-3.8,11.25h-42.49l12.62-59.38L1032.82-713.86"/>
				<path class="st7" d="M915.53-680.39c-1.39,7.38-6.4,13.18-13.44,13.18c-6.62,0-9.64-5.43-8.37-11.36
					c1.08-4.99,6.27-9.97,15.92-9.97h7.63L915.53-680.39z M903.66-713.72c1.27-6.03,5.86-10.81,11.7-10.81
					c5.95,0,8.38,5.05,7.32,10.18l-0.76,3.69l43.88-4.59c-3.32-22.41-24.27-32.15-48.6-32.15c-36.25,0-53.58,18.02-56.99,33.96
					l-0.48,2.26h43.42L903.66-713.72z M849.67-684.2c-1.32,3.76-1.94,7.95-1.94,12.48c0,15.27,11.47,28.49,30.57,28.49
					c17.52,0,27.55-7.34,32.11-12.21h0.61l-0.9,9.3h43.98l10.84-50.58c0.44-2.19,0.79-4.29,1.02-6.28L849.67-684.2"/>
			</g>
		</g>
	</g>
	<g>
		<path class="st7" d="M1306.43-663.86c5.32,0,9.54,4.31,9.54,9.71c0,5.48-4.23,9.77-9.59,9.77c-5.3,0-9.62-4.28-9.62-9.77
			c0-5.4,4.32-9.71,9.62-9.71H1306.43z M1306.38-662.35c-4.27,0-7.77,3.67-7.77,8.2c0,4.62,3.5,8.26,7.82,8.26
			c4.32,0.04,7.77-3.64,7.77-8.21c0-4.58-3.45-8.25-7.77-8.25H1306.38z M1304.57-648.49h-1.73v-10.84c0.9-0.13,1.76-0.26,3.06-0.26
			c1.64,0,2.72,0.34,3.38,0.82c0.64,0.47,0.98,1.21,0.98,2.24c0,1.42-0.95,2.29-2.12,2.64v0.09c0.95,0.17,1.6,1.04,1.82,2.64
			c0.25,1.69,0.52,2.33,0.7,2.68h-1.82c-0.26-0.35-0.52-1.34-0.73-2.77c-0.27-1.39-0.96-1.91-2.34-1.91h-1.21V-648.49z
			 M1304.57-654.49h1.25c1.43,0,2.64-0.52,2.64-1.86c0-0.95-0.71-1.91-2.64-1.91c-0.57,0-0.95,0.05-1.25,0.09V-654.49z"/>
	</g>
</g>
</svg>
