<?xml version="1.0" encoding="utf-8"?>
<!-- Generator: Adobe Illustrator 23.0.1, SVG Export Plug-In . SVG Version: 6.00 Build 0)  -->
<svg version="1.1" id="Warstwa_1" xmlns="http://www.w3.org/2000/svg" xmlns:xlink="http://www.w3.org/1999/xlink" x="0px" y="0px"
	 viewBox="0 0 1024 768" style="enable-background:new 0 0 1024 768;" xml:space="preserve">
<style type="text/css">
	.st0{fill:#4565AD;}
	.st1{fill-rule:evenodd;clip-rule:evenodd;fill:#FFD600;}
	.st2{fill-rule:evenodd;clip-rule:evenodd;fill:#3A3938;}
	.st3{fill:#2B2577;}
	.st4{fill:#009DB1;}
	.st5{fill:#E84424;}
	.st6{clip-path:url(#SVGID_2_);}
	.st7{fill:#DD0F19;}
</style>
<g>
	<path class="st0" d="M639.75,286.06l-5.5-15.82h-90.61v15.82H639.75L639.75,286.06z M650.25,316.26l-5.5-15.82H543.64v15.82H650.25
		L650.25,316.26z M717.66,497.47h79.1v-15.82h-79.1V497.47L717.66,497.47z M717.66,467.27h79.1v-15.82h-79.1V467.27L717.66,467.27z
		 M717.66,437.07h47.46v-15.82h-47.46V437.07L717.66,437.07z M765.12,391.04h-47.46v15.82h47.46V391.04L765.12,391.04z
		 M717.66,376.66h47.46v-15.82h-90.47l-4.45,12.79l-4.45-12.79h-90.47v15.82h47.46v-14.54l5.1,14.54h84.71l5.1-14.54V376.66
		L717.66,376.66z M765.12,330.64h-79.97l-5.5,15.82h85.47V330.64L765.12,330.64z M575.28,406.87h47.46v-15.82h-47.46V406.87
		L575.28,406.87z M575.28,437.07h47.46v-15.82h-47.46V437.07L575.28,437.07z M543.64,467.27h79.1v-15.82h-79.1V467.27L543.64,467.27
		z M543.64,497.47h79.1v-15.82h-79.1V497.47L543.64,497.47z M706.16,270.24l-5.5,15.82h96.11v-15.82H706.16L706.16,270.24z
		 M690.15,316.26h106.61v-15.82H695.66L690.15,316.26L690.15,316.26z M575.28,346.46h85.47l-5.5-15.82h-79.97V346.46L575.28,346.46z
		 M638.45,406.87h63.51l5.55-15.82H632.9L638.45,406.87L638.45,406.87z M649.05,437.07h42.3l5.55-15.82H643.5L649.05,437.07
		L649.05,437.07z M659.65,467.27h21.1l5.55-15.82h-32.2L659.65,467.27L659.65,467.27z M670.2,497.47l5.5-15.82h-11L670.2,497.47
		L670.2,497.47z M353.8,497.47h116.49c15.82,0,30.01-6,40.75-15.82H353.8V497.47L353.8,497.47z M477.48,421.25v15.82h53.21
		c0-5.48-0.75-10.78-2.12-15.82H477.48L477.48,421.25z M385.44,437.07h47.46v-15.82h-47.46V437.07L385.44,437.07z M477.48,346.46
		h51.1c1.37-5.05,2.12-10.34,2.12-15.82h-53.21V346.46L477.48,346.46z M385.44,346.46h47.46v-15.82h-47.46V346.46L385.44,346.46z
		 M470.29,270.24H353.8v15.82h157.24C500.3,276.23,486,270.24,470.29,270.24L470.29,270.24z M522.6,300.44H353.8v15.82h175.16
		C527.59,310.63,525.42,305.32,522.6,300.44L522.6,300.44z M385.44,360.84v15.82h123.94c5.25-4.47,9.72-9.82,13.2-15.82H385.44
		L385.44,360.84z M509.38,391.04H385.44v15.82h137.14C519.1,400.86,514.64,395.51,509.38,391.04L509.38,391.04z M353.8,467.27h168.8
		c2.83-4.88,4.99-10.2,6.37-15.82H353.8V467.27L353.8,467.27z M227.24,286.06h110.74v-15.82H227.24V286.06L227.24,286.06z
		 M227.24,316.26h110.74v-15.82H227.24V316.26L227.24,316.26z M306.34,330.64h-47.46v15.82h47.46V330.64L306.34,330.64z
		 M258.88,376.66h47.46v-15.82h-47.46V376.66L258.88,376.66z M258.88,406.87h47.46v-15.82h-47.46V406.87L258.88,406.87z
		 M258.88,437.07h47.46v-15.82h-47.46V437.07L258.88,437.07z M227.24,467.27h110.74v-15.82H227.24V467.27L227.24,467.27z
		 M227.24,481.65h110.74v15.82H227.24V481.65L227.24,481.65z M826.38,485.43c0.97,0,1.51-0.42,1.51-1.33v-0.91
		c0-0.91-0.54-1.33-1.51-1.33h-2.3v3.56H826.38L826.38,485.43z M824.08,492.08H821v-12.63h5.74c2.84,0,4.29,1.69,4.29,3.99
		c0,1.99-0.91,3.26-2.3,3.81l2.84,4.83h-3.38l-2.36-4.35h-1.75V492.08L824.08,492.08z M835.14,486.46v-1.57
		c0-5.07-3.99-9.06-9.24-9.06c-5.26,0-9.24,3.99-9.24,9.06v1.57c0,5.07,3.99,9.06,9.24,9.06
		C831.15,495.52,835.14,491.53,835.14,486.46L835.14,486.46z M813.81,485.67c0-7.07,5.38-12.44,12.08-12.44
		c6.7,0,12.08,5.38,12.08,12.44c0,7.07-5.38,12.45-12.08,12.45C819.19,498.12,813.81,492.74,813.81,485.67L813.81,485.67z"/>
</g>
<g>
	<path class="st1" d="M1494.63,350.78c-2.08-5.05-7.05-8.6-12.84-8.6c-7.67,0-13.88,6.22-13.88,13.88c0,1.23,0.16,2.42,0.46,3.56
		h1.52c0.42,0,0.98-0.46,1.13-0.82l2.71-6.85c0.34-0.87,1.19-1.44,2.12-1.44c0.94,0,1.78,0.57,2.12,1.44l4.33,10.97
		c0.19,0.48,0.74,0.87,1.22,0.87h0.93c0.21,0,0.44,0.17,0.53,0.37l0.38,0.97c0.08,0.21-0.02,0.38-0.23,0.38h-2.91
		c-1.26,0-2.72-1.03-3.22-2.29l-3.08-7.81c-0.31-0.78-0.54-1.52-0.74-2.32c-0.2,0.8-0.43,1.54-0.74,2.32l-1.49,3.76
		c-0.47,1.2-1.86,2.18-3.06,2.18h-0.94c2.08,5.05,7.05,8.6,12.84,8.6c7.67,0,13.88-6.22,13.88-13.88c0-1.23-0.16-2.42-0.46-3.56
		h-1.52c-0.42,0-0.98,0.46-1.13,0.82l-2.71,6.85c-0.34,0.87-1.19,1.44-2.12,1.44c-0.94,0-1.78-0.57-2.12-1.44l-4.33-10.97
		c-0.19-0.48-0.74-0.87-1.22-0.87h-0.93c-0.21,0-0.44-0.17-0.53-0.37l-0.38-0.97c-0.08-0.21,0.02-0.38,0.23-0.38h2.91
		c1.26,0,2.72,1.03,3.22,2.29l3.08,7.81c0.31,0.78,0.54,1.52,0.74,2.32c0.2-0.8,0.43-1.54,0.74-2.32l1.49-3.76
		c0.47-1.2,1.86-2.18,3.06-2.18H1494.63z"/>
	<path class="st2" d="M1598.01,350.2l1.19,3c0.26,0.67,0.45,1.31,0.63,2c0.18-0.69,0.36-1.33,0.63-2l1.19-3
		c0.28-0.71,0.97-1.18,1.73-1.18c0.76,0,1.45,0.47,1.73,1.18l3.76,9.53c0.72,1.78-0.14,3.22-1.92,3.22c-1.42,0-1.51,0-2.93,0
		c-0.2,0-0.29-0.16-0.22-0.36l0.36-0.9c0.08-0.19,0.3-0.35,0.5-0.35c0.99,0,0.66,0,1.65,0l-2.93-7.42c-0.26-0.67-0.45-1.31-0.63-2
		c-0.18,0.69-0.36,1.33-0.63,2l-3.43,8.69c-0.08,0.19-0.3,0.35-0.49,0.35h-1.23c-0.2,0-0.29-0.16-0.22-0.36
		c0.49-1.25,0.99-2.5,1.48-3.75l-1.94-4.92c-0.26-0.67-0.45-1.31-0.63-2c-0.18,0.69-0.36,1.33-0.63,2l-2.76,6.99
		c-0.44,1.12-1.74,2.04-2.86,2.04h-1.45c-0.2,0-0.29-0.16-0.22-0.36l0.36-0.9c0.08-0.19,0.3-0.35,0.5-0.35h0.81
		c0.39,0,0.92-0.43,1.05-0.77l4.09-10.36c0.28-0.71,0.97-1.18,1.73-1.18C1597.04,349.02,1597.73,349.49,1598.01,350.2L1598.01,350.2
		z M1556.09,351.74l3.78,9.59h-7.17l1.35-3.43c0.08-0.2-0.02-0.36-0.22-0.36h-1.23c-0.19,0-0.41,0.15-0.49,0.35l-1.15,2.9
		c-0.47,1.2,0.09,2.14,1.28,2.14h8.26c1.78,0,2.64-1.44,1.92-3.22l-3.53-8.95h1.58c0.19,0,0.41-0.16,0.5-0.35l0.36-0.9
		c0.08-0.2-0.02-0.36-0.22-0.36h-3.49C1556.21,349.17,1555.52,350.32,1556.09,351.74L1556.09,351.74z M1508.78,350.2l4.07,10.32
		c0.18,0.45,0.7,0.82,1.15,0.82h0.26c0.19,0,0.41,0.16,0.5,0.35l0.36,0.9c0.08,0.2-0.02,0.36-0.22,0.36h-2.11
		c-1.18,0-2.55-0.96-3.01-2.15c-0.91-2.3-1.81-4.59-2.72-6.89c-0.26-0.67-0.45-1.31-0.63-2c-0.18,0.69-0.36,1.33-0.63,2
		c-0.98,2.48-1.96,4.95-2.93,7.42h2.74c0.19,0,0.41,0.16,0.5,0.35l0.36,0.9c0.08,0.2-0.02,0.36-0.22,0.36h-3.62
		c-1.31,0-1.93-1.04-1.41-2.36l4.1-10.39c0.28-0.71,0.97-1.18,1.73-1.18C1507.81,349.02,1508.5,349.49,1508.78,350.2L1508.78,350.2z
		 M1576.32,349.17c0.2,0,0.29,0.16,0.22,0.36l-0.36,0.9c-0.08,0.19-0.3,0.35-0.5,0.35h-3.64l-4.17,10.56h4.31
		c0.2,0,0.29,0.16,0.22,0.36l-0.36,0.9c-0.08,0.19-0.3,0.35-0.5,0.35h-4.31c-1.78,0-2.64-1.44-1.92-3.22l3.53-8.95h-4.45
		c-0.2,0-0.29-0.16-0.22-0.36l0.36-0.9c0.08-0.19,0.3-0.35,0.5-0.35H1576.32L1576.32,349.17z M1530.76,351.74l3.78,9.59h-7.17
		l1.35-3.43c0.08-0.2-0.02-0.36-0.22-0.36h-1.23c-0.19,0-0.41,0.15-0.49,0.35l-1.15,2.9c-0.47,1.2,0.09,2.14,1.28,2.14h8.26
		c1.78,0,2.64-1.44,1.92-3.22l-3.53-8.95h1.58c0.19,0,0.41-0.16,0.5-0.35l0.36-0.9c0.08-0.2-0.02-0.36-0.22-0.36h-3.49
		C1530.87,349.17,1530.18,350.32,1530.76,351.74L1530.76,351.74z M1543.65,362.55c-0.66-0.37-1.22-0.97-1.49-1.64l-3.7-9.38
		c-0.52-1.32,0.1-2.36,1.41-2.36h2.22c0.2,0,0.29,0.16,0.22,0.36l-0.36,0.9c-0.08,0.19-0.3,0.35-0.5,0.35h-1.34l3.77,9.54
		c0.08,0.19,0.23,0.4,0.43,0.57l3.78-9.57c0.47-1.18,1.83-2.15,3.01-2.15h2.11c0.2,0,0.29,0.16,0.22,0.36l-0.36,0.9
		c-0.08,0.19-0.3,0.35-0.5,0.35h-0.26c-0.45,0-0.97,0.36-1.15,0.82l-5.28,13.37c-0.47,1.18-1.84,2.15-3.01,2.15h-2.81
		c-0.2,0-0.29-0.16-0.22-0.36l0.36-0.9c0.08-0.19,0.3-0.35,0.5-0.35h0.96c0.45,0,0.97-0.36,1.15-0.82L1543.65,362.55L1543.65,362.55
		z M1518.28,361.91c0.28,0.71,0.97,1.18,1.73,1.18c0.76,0,1.45-0.47,1.73-1.18c1.37-3.48,2.72-6.89,4.09-10.36
		c0.13-0.34,0.66-0.77,1.05-0.77h0.81c0.19,0,0.41-0.16,0.5-0.35l0.36-0.9c0.08-0.2-0.02-0.36-0.22-0.36h-1.45
		c-1.13,0-2.42,0.92-2.86,2.04c-0.92,2.33-1.84,4.66-2.76,6.99c-0.26,0.67-0.45,1.31-0.63,2c-0.18-0.69-0.36-1.33-0.63-2
		c-0.91-2.3-1.81-4.59-2.72-6.89c-0.47-1.18-1.83-2.15-3.01-2.15h-2.11c-0.2,0-0.29,0.16-0.22,0.36l0.36,0.9
		c0.08,0.19,0.3,0.35,0.5,0.35h0.26c0.45,0,0.97,0.36,1.15,0.82C1515.57,355.06,1516.91,358.45,1518.28,361.91L1518.28,361.91z
		 M1581.15,358.36h4.27c1.18,0,2.55-0.96,3.01-2.15l1.51-3.82c0.72-1.78-0.14-3.22-1.92-3.22c-2.49,0-3.98,0-6.47,0
		c-1.18,0-2.55,0.96-3.01,2.15l-3.32,8.41c-0.72,1.78,0.14,3.22,1.92,3.22h6.32c0.19,0,0.41-0.16,0.5-0.35l0.36-0.9
		c0.08-0.2-0.02-0.36-0.22-0.36h-6.32l3.84-9.74c0.18-0.45,0.7-0.82,1.15-0.82c1.87,0,2.75,0,4.62,0l-2.03,5.16
		c-0.18,0.45-0.7,0.82-1.15,0.82h-2.42c-0.19,0-0.41,0.16-0.5,0.35l-0.36,0.9C1580.86,358.2,1580.95,358.36,1581.15,358.36z"/>
</g>
<g>
	<g>
		<path class="st3" d="M1448.22,210.62l-0.09-0.04c-0.01-0.01-1.01-0.46-1.79,0.37l-0.1,0.11l1.6,0.79L1448.22,210.62
			L1448.22,210.62z M1455.56,219.44c0,0-0.7,1.25-1.01,1.72c-0.31,0.47-1.3,0.76-2.15,0.35c-0.39-0.19-4.03-2.31-5.42-2.19
			c-7.05,0.62-8.98-2.29-9.2-2.55c-0.23-0.26-0.65-0.14-0.35,0.38c1.55,2.65,6.13,3.88,6.13,3.88c1.2,2.89,1.34,4.91,1.34,4.91
			c-1.19-0.92-2.47-1.7-3.82-2.35c-3.63-2.44-9.31-5.45-17.14-7.34c0.45-6.21,3.58-15.18,18.22-13.05c0,0,2.94,0.48,4.9,1.84
			c0,0-0.47,0.49-1.09,1.11c-0.62,0.62,0.07,1.01,0.07,1.01l3.09,2.43c0.04,1.29,0.09,1.65,1.06,2.81c0.97,1.16,4.73,5.1,5.22,5.63
			C1455.97,218.62,1455.56,219.44,1455.56,219.44L1455.56,219.44z M1421.84,207.34c-0.77,3.19-0.72,6-0.32,8.36
			c-0.73-0.15-1.48-0.29-2.25-0.41c-16.02-2.61-20.86,5.29-18.99,11.69c-5.3,1.99-10.28,4.27-14.27,6.51
			c6.29-15.08,19.96-28.36,31.49-30.11C1421.27,202.9,1422.33,205.34,1421.84,207.34L1421.84,207.34z"/>
		<path class="st4" d="M1424.06,221.13c6.24-0.49,12.14,0.13,17.01,2.45c-3.63-2.44-9.31-5.45-17.14-7.34
			C1423.77,218.4,1423.94,220.22,1424.06,221.13L1424.06,221.13z M1423.16,221.21c-7,0.67-15.27,2.92-22.87,5.78
			c-1.87-6.4,2.96-14.3,18.99-11.69c0.77,0.13,1.52,0.27,2.25,0.41C1421.9,217.97,1422.59,219.82,1423.16,221.21L1423.16,221.21z"/>
		<path class="st3" d="M1516.87,218.82l2.17-5.3l2.17,5.3H1516.87L1516.87,218.82z M1517.43,209.21l-7,16.45h3.66l1.49-3.66h6.91
			l1.49,3.66h3.76l-7-16.45H1517.43L1517.43,209.21z M1524.86,211.15v-0.55h0.22l0.32,0.55h0.28l-0.37-0.62
			c0.08-0.03,0.15-0.08,0.2-0.15c0.05-0.07,0.07-0.15,0.07-0.23c0-0.15-0.04-0.25-0.13-0.33c-0.08-0.07-0.22-0.11-0.4-0.11h-0.43
			v1.44H1524.86L1524.86,211.15z M1526.14,210.44c0,0.59-0.48,1.06-1.06,1.06s-1.06-0.48-1.06-1.06c0-0.59,0.48-1.06,1.06-1.06
			S1526.14,209.86,1526.14,210.44L1526.14,210.44z M1525.08,209.21c-0.68,0-1.23,0.55-1.23,1.23s0.55,1.23,1.23,1.23
			c0.68,0,1.23-0.55,1.23-1.23S1525.76,209.21,1525.08,209.21L1525.08,209.21z M1524.86,209.92h0.17c0.1,0,0.18,0.02,0.22,0.05
			c0.05,0.04,0.07,0.09,0.07,0.18c0,0.07-0.03,0.13-0.08,0.17c-0.05,0.05-0.12,0.07-0.21,0.07h-0.18V209.92L1524.86,209.92z
			 M1472.1,215.01c0,1.41-1.06,2.49-2.87,2.49h-2.87v-5.03h2.8c1.81,0,2.94,0.87,2.94,2.49V215.01L1472.1,215.01z M1469.47,209.21
			h-6.72v16.45h3.62v-4.93h2.75c3.69,0,6.65-1.97,6.65-5.78v-0.05C1475.77,211.53,1473.4,209.21,1469.47,209.21L1469.47,209.21z
			 M1495.46,211.05c-1.72,1.68-2.6,3.82-2.6,6.34c0,2.52,0.86,4.64,2.55,6.3c1.69,1.65,3.82,2.49,6.32,2.49
			c2.97,0,5.28-0.9,6.89-2.67l0.08-0.09v-7.55h-7.15v3.06h3.73V222c-0.97,0.58-2.17,0.87-3.59,0.87c-1.47,0-2.73-0.5-3.76-1.49
			c-1.03-0.99-1.55-2.33-1.55-3.97c0-1.65,0.54-2.99,1.59-4c1.06-1.01,2.39-1.52,3.96-1.52c0.82,0,1.55,0.1,2.17,0.3
			c0.58,0.19,1.16,0.53,1.74,1l2-2.53c-1.06-0.93-2.96-2.15-6.12-2.15C1499.29,208.51,1497.18,209.36,1495.46,211.05L1495.46,211.05
			z M1482.01,219.08h7.08v-3.22h-7.08v-3.43h8.81v-3.22h-12.41v16.45h12.52v-3.22h-8.93V219.08L1482.01,219.08z"/>
	</g>
	<g>
		<path id="Magnets" class="st5" d="M1559.65,217.43c0,1.85-1.5,3.34-3.34,3.34c-1.85,0-3.34-1.5-3.34-3.34s1.5-3.34,3.34-3.34
			C1558.16,214.09,1559.65,215.59,1559.65,217.43z M1690.82,214.09c-1.85,0-3.34,1.5-3.34,3.34s1.5,3.34,3.34,3.34
			c1.85,0,3.34-1.5,3.34-3.34S1692.67,214.09,1690.82,214.09z"/>
		<path id="Wordmark" d="M1586.41,226.39h-4.64l-1.3-4.64h-6.02l-1.28,4.64h-4.54l5.37-17.92h7.05L1586.41,226.39z M1575.44,218.09
			h3.99l-1.43-5.19h-1.1L1575.44,218.09z M1603.92,208.47c4.24,0,6.7,2.16,6.7,5.9c0,3.79-2.46,6-6.7,6h-3.92v6.02h-4.67v-17.92
			H1603.92z M1603.32,216.38c1.83,0,2.53-0.65,2.53-1.93c0-1.28-0.7-1.91-2.53-1.91h-3.31v3.84H1603.32z M1634.66,212.59h-5.37v13.8
			h-4.67v-13.8h-5.34v-4.12h15.38V212.59z M1650.23,226.39h-4.67v-17.92h4.67V226.39z M1661.09,208.47h4.89l3.39,13.5h1.1l3.36-13.5
			h4.79l-4.99,17.92h-7.51L1661.09,208.47z"/>
	</g>
</g>
<g>
	<g>
		<defs>
			<rect id="SVGID_1_" x="1400.96" y="258.91" width="115.84" height="55.68"/>
		</defs>
		<clipPath id="SVGID_2_">
			<use xlink:href="#SVGID_1_"  style="overflow:visible;"/>
		</clipPath>
		<path class="st6" d="M1493.2,273.19c3.8,0,6.86,3.06,6.86,6.86c0,2.36-1.09,4.36-2.88,5.59c1.86,1.27,3.13,3.37,3.13,5.8
			c0,3.9-3.2,7.1-7.1,7.1c-3.9,0-7.1-3.2-7.1-7.1c0-2.43,1.23-4.57,3.09-5.84c-1.72-1.23-2.81-3.2-2.81-5.55
			C1486.38,276.25,1489.4,273.19,1493.2,273.19 M1493.2,296.23c2.64,0,4.72-2.27,4.72-4.83c0-2.56-2.08-4.83-4.72-4.83
			c-2.64,0-4.72,2.27-4.72,4.83C1488.48,293.97,1490.56,296.23,1493.2,296.23 M1493.2,275.41c-2.56,0-4.49,2.15-4.49,4.64
			c0,2.49,1.92,4.6,4.49,4.6c2.53,0,4.52-2.11,4.52-4.6C1497.72,277.56,1495.72,275.41,1493.2,275.41"/>
		<polygon class="st6" points="1477.18,281.57 1477.18,275.41 1472.99,275.41 1472.99,281.57 1468.19,281.57 1468.19,285.56 
			1483.45,285.56 1483.45,281.57 		"/>
		<path class="st6" d="M1477.18,294.08v-7.25h-4.19v7.87c0,1.86,1.51,3.37,3.37,3.37h7.09v-3.99H1477.18z"/>
		<path class="st6" d="M1460.9,278.61c0.29,0.28,0.62,0.5,1,0.67c0.38,0.17,0.79,0.25,1.23,0.25c0.45,0,0.9-0.1,1.31-0.29
			c0.35-0.16,0.66-0.37,0.92-0.62c0.29-0.28,0.52-0.61,0.68-1c0.17-0.39,0.25-0.81,0.25-1.25c0-0.44-0.08-0.86-0.25-1.25
			c-0.17-0.39-0.4-0.72-0.68-1c-0.27-0.26-0.58-0.47-0.94-0.63c-0.41-0.19-0.85-0.29-1.3-0.29c-0.44,0-0.86,0.08-1.23,0.25
			c-0.38,0.17-0.71,0.39-1,0.67c-0.29,0.28-0.52,0.61-0.68,1c-0.17,0.39-0.25,0.81-0.25,1.25c0,0.45,0.08,0.86,0.25,1.25
			C1460.38,278,1460.61,278.34,1460.9,278.61"/>
		<rect x="1455.48" y="294.08" class="st6" width="14.58" height="3.99"/>
		<polygon class="st6" points="1461.07,292.81 1465.27,292.81 1465.27,281.57 1455.97,281.57 1455.97,285.56 1461.07,285.56 		"/>
		<rect x="1437.17" y="281.57" class="st6" width="4.19" height="16.51"/>
		<path class="st6" d="M1452.1,284.7c-0.3-0.82-0.72-1.5-1.25-2.03c-0.53-0.53-1.15-0.93-1.85-1.18c-0.7-0.26-1.45-0.38-2.25-0.38
			c-1.13,0-2.12,0.26-2.96,0.77c-0.46,0.28-0.84,0.63-1.16,1.03v2.86c0.59-0.57,1.4-0.86,2.43-0.86c1.07,0,1.88,0.34,2.45,1.02
			c0.57,0.68,0.85,1.6,0.85,2.78v9.39h4.19v-10.45C1452.55,286.49,1452.4,285.52,1452.1,284.7"/>
		<path class="st6" d="M1422.83,293.25c-0.64-0.78-0.97-1.85-0.97-3.23v-14.61h-4.39v14.61c0,2.66,0.7,4.75,2.11,6.26
			c1.28,1.37,3.12,2.11,5.51,2.24v-4.16C1424.11,294.24,1423.35,293.87,1422.83,293.25"/>
		<path class="st6" d="M1429.85,275.41v14.61c0,1.38-0.32,2.45-0.97,3.23c-0.52,0.62-1.28,0.99-2.27,1.11v4.16
			c2.4-0.13,4.24-0.87,5.51-2.24c1.41-1.51,2.11-3.59,2.11-6.26v-14.61H1429.85z"/>
		<polygon class="st6" points="1502.33,297.79 1502.33,295.77 1501.6,295.77 1501.6,295.4 1503.47,295.4 1503.47,295.77 
			1502.75,295.77 1502.75,297.79 		"/>
		<polygon class="st6" points="1505.9,297.79 1505.9,295.94 1505.17,297.79 1504.99,297.79 1504.25,295.94 1504.25,297.79 
			1503.83,297.79 1503.83,295.4 1504.43,295.4 1505.08,297.04 1505.73,295.4 1506.32,295.4 1506.32,297.79 		"/>
	</g>
	<g>
		<g>
			<g>
				<g>
					<path class="st7" d="M1671.83,293.32c-1.23,3.5-4.62,5.8-10.18,5.8c-4.63,0-9.09-2.69-7.99-8.86
						c0.92-5.19,5.69-8.65,11.14-8.65c6.11,0,8.77,4.19,7.78,9.08l-0.24,1.12h-11.47c-0.04,0.13-0.18,0.66-0.18,1.25
						c0,1.47,0.78,1.98,1.77,1.98c1.02,0,1.9-0.57,2.39-1.72H1671.83z M1665.92,288.32l0.08-0.38c0.24-1.28-0.37-2.24-1.71-2.24
						c-1.23,0-2.29,0.89-2.66,2.63H1665.92"/>
					<path class="st7" d="M1652.6,281.9c-1.76,0-3.17,1.01-4.12,2.32h-0.14l0.25-2.12h-7.38l-0.45,2.15l4.08-0.43l-0.09,0.41
						l-4.14,0.67l-2.91,13.72h7.96c0,0,0.82-3.94,1.32-6.25c0.8-3.68,2.82-4.52,4.17-4.52c1.14,0,1.85,0.51,2.02,0.66l1.3-6.14
						C1654.34,282.3,1653.66,281.9,1652.6,281.9"/>
					<path class="st7" d="M1580.16,288.96c-3.2-1.01-5.62-2.9-5.62-6.48c0-5.23,5.22-8.23,12.21-8.24c5.92-0.02,9.84,2.45,9.15,7.37
						l-8.42,0c0.3-1.34-0.48-2.11-1.92-2.11c-1.12,0-1.99,0.58-2.13,1.26c-0.2,0.97,0.43,1.59,1.94,2c1.27,0.35,2.14,0.58,3.39,0.94
						c3.56,1.02,5.27,3.15,5.71,5.37l-10.59,1.09L1580.16,288.96z M1580.46,294.64l0.7-3.36h-9.04c-0.63,5.69,3.84,7.96,9.56,7.96
						c5.5,0,11.31-1.83,12.6-6.85L1580.46,294.64"/>
					<path class="st7" d="M1627.37,283.31c0.63-0.51,2.18-1.7,4.55-1.7c2.41,0,4.25,1.05,5.18,3.02l-18.49,1.93l2.48-11.69h7.96
						l-1.79,8.44H1627.37z M1626.94,287.11c-0.52,0.69-0.94,1.7-1.27,3.21c-0.71,3.27,0.06,4.12,1.03,4.12
						c1.29,0,2.38-1.23,2.92-4.08c0.34-1.82,0.29-3.12-0.2-3.66l7.98-1.29c0.39,1.27,0.46,2.89,0.08,4.75
						c-1.17,5.87-4.76,8.95-8.77,8.95c-1.82,0-3.8-0.47-4.62-2.41h-0.17l-0.65,1.91h-7.22l2.14-10.09L1626.94,287.11"/>
					<path class="st7" d="M1607,292.8c-0.24,1.25-1.09,2.24-2.29,2.24c-1.13,0-1.64-0.92-1.42-1.93c0.18-0.85,1.07-1.7,2.71-1.7h1.3
						L1607,292.8z M1604.98,287.13c0.22-1.02,1-1.84,1.99-1.84c1.01,0,1.42,0.86,1.24,1.73l-0.13,0.63l7.46-0.78
						c-0.56-3.81-4.13-5.46-8.26-5.46c-6.16,0-9.11,3.06-9.69,5.77l-0.08,0.38h7.38L1604.98,287.13z M1595.8,292.15
						c-0.22,0.64-0.33,1.35-0.33,2.12c0,2.6,1.95,4.84,5.2,4.84c2.98,0,4.68-1.25,5.46-2.08h0.1l-0.15,1.58h7.48l1.84-8.6
						c0.08-0.37,0.14-0.73,0.17-1.07L1595.8,292.15"/>
				</g>
			</g>
		</g>
		<g>
			<path class="st7" d="M1673.45,295.61c0.9,0,1.62,0.73,1.62,1.65c0,0.93-0.72,1.66-1.63,1.66c-0.9,0-1.64-0.73-1.64-1.66
				C1671.8,296.34,1672.54,295.61,1673.45,295.61L1673.45,295.61z M1673.44,295.87c-0.73,0-1.32,0.62-1.32,1.39
				c0,0.79,0.59,1.4,1.33,1.4c0.73,0.01,1.32-0.62,1.32-1.4C1674.77,296.49,1674.18,295.87,1673.44,295.87L1673.44,295.87z
				 M1673.13,298.22h-0.29v-1.84c0.15-0.02,0.3-0.04,0.52-0.04c0.28,0,0.46,0.06,0.57,0.14c0.11,0.08,0.17,0.21,0.17,0.38
				c0,0.24-0.16,0.39-0.36,0.45v0.01c0.16,0.03,0.27,0.18,0.31,0.45c0.04,0.29,0.09,0.4,0.12,0.46h-0.31
				c-0.05-0.06-0.09-0.23-0.12-0.47c-0.05-0.24-0.16-0.32-0.4-0.32h-0.21V298.22z M1673.13,297.2h0.21c0.24,0,0.45-0.09,0.45-0.32
				c0-0.16-0.12-0.32-0.45-0.32c-0.1,0-0.16,0.01-0.21,0.02V297.2z"/>
		</g>
	</g>
</g>
</svg>
